<?xml version="1.0" encoding="utf-8"?>
<!-- Generator: Adobe Illustrator 23.0.0, SVG Export Plug-In . SVG Version: 6.00 Build 0)  -->
<svg version="1.0" id="Capa_1" xmlns="http://www.w3.org/2000/svg" xmlns:xlink="http://www.w3.org/1999/xlink" x="0px" y="0px"
	 viewBox="0 0 1024 768" style="enable-background:new 0 0 1024 768;" xml:space="preserve">
<style type="text/css">
	.st0{fill:#1D70B7;}
</style>
<path class="st0" d="M455.51,443.81c10.11,18.93,17.23,32.35,24.44,45.73c7.67,14.22,3.17,25.18-8.78,34.47
	c-8.61,6.69-17.14,9.18-27.15,2.57c-12.65-8.35-18.33-20.02-12.92-33.93C437.02,477.42,445.63,463.24,455.51,443.81z"/>
<path class="st0" d="M391.14,442.99c9.75,20.46,17.66,34.76,23.45,49.88c5.34,13.95,0.37,25.73-12.43,33.94
	c-9.82,6.3-18.51,4.45-26.99-2.8c-11.2-9.57-16.48-19.96-8.18-34.44C374.52,476.44,381,462.69,391.14,442.99z"/>
<path class="st0" d="M195.45,541.31c8.82,16.41,16.54,30.58,24.08,44.84c6.83,12.9,3.12,23.67-8.39,31.13
	c-15.42,10-30.13,3.55-41.99-6.47c-9.53-8.05-6.74-18.23,0.89-28.33C179.07,570.54,185.95,556.97,195.45,541.31z"/>
<path class="st0" d="M391.25,538.93c9.79,19.83,18.12,33.78,23.63,48.77c4.4,11.98,2.6,24.54-10.59,31.48
	c-10.78,5.67-21.94,3.92-31.37-2.83c-11.59-8.3-13.2-19.51-6.14-32.11C374.1,571.16,381.05,557.87,391.25,538.93z"/>
<path class="st0" d="M456.99,545.75c6.01,24.19,44.63,41.21,16.3,70.01c-9.58,9.73-26.76,11.24-35.96-1.01
	C415.44,585.62,446,568.18,456.99,545.75z"/>
<path class="st0" d="M61.93,545.17c7.11,23.34,43.23,39,19.34,68.95c-9.08,11.38-26.48,12.83-35.7,2.03
	C21.76,588.25,50.68,568.52,61.93,545.17z"/>
<path class="st0" d="M260.44,544.95c8.61,23.45,42.26,40.75,18.21,69.62c-10.5,12.6-27.74,11.35-37.77-1.12
	C216.91,583.68,253.66,568.37,260.44,544.95z"/>
<path class="st0" d="M325.46,540.34c9.94,18.43,18.56,32.13,24.85,46.83c4.59,10.73,2.98,22.38-7.91,29.49
	c-12.48,8.15-25.22,7.09-36.68-2.63c-10.08-8.55-10.35-18.53-3.98-29.67C308.84,571.95,315.34,559.2,325.46,540.34z"/>
<path class="st0" d="M129.06,543.65c6.51,12.17,13.42,23.39,18.67,35.34c5.99,13.63,8.96,28.29-5.62,38.62
	c-9.74,6.9-21.56,6.31-31.23-0.53c-13.61-9.64-10.43-24.22-5.16-36.02C111.39,568.38,115.81,554.19,129.06,543.65z"/>
<g>
	<path d="M539.72,612.62c64.44-20.13,124.51-48.91,179.33-90.29c-1.61,0.12-2.32,0.08-2.99,0.24
		c-31.99,7.31-63.58,15.92-93.91,28.65c-31.58,13.25-60.62,30.44-84.81,55.09c-0.32,0.32-0.7,0.59-1.44,0.64
		c1.35-2.19,2.64-4.41,4.07-6.55c1.5-2.24,3.1-4.42,4.7-6.59c18.01-24.38,40.83-43.25,66.87-58.46
		c29.1-16.99,60.34-28.91,92.41-38.76c20.66-6.35,41.54-11.96,62.28-18.02c1.91-0.56,3.91-1.67,5.29-3.1
		c21.16-21.84,39.5-45.83,55.14-71.92c13.46-22.47,24.54-46.08,33-70.79c13.71-40.03,20.81-81.34,22.09-123.65
		c0.04-1.17-0.31-2.53,0.17-3.47c0.63-1.24,1.9-2.16,2.89-3.22c0.65,1.04,1.9,2.1,1.86,3.12c-0.28,8.79-0.51,17.6-1.3,26.36
		c-2.88,31.9-8.85,63.22-18.53,93.77c-17.12,54.02-44.25,102.43-81.8,144.94c-0.7,0.79-1.4,1.58-2.06,2.4
		c-0.13,0.16-0.11,0.43-0.24,1.03c1.95-0.5,3.74-0.92,5.51-1.4c32.86-9.02,65.65-18.28,97.29-31.1
		c29.22-11.85,56.94-26.35,80.66-47.48c7.5-6.68,14.37-14.09,22.08-21.71c-1.38,4.84-2.46,9.26-3.9,13.55
		c-8.48,25.33-23.57,46.26-42.91,64.39c-17.8,16.69-39.23,26.83-61.97,34.61c-31.1,10.64-63.26,17.02-95.39,23.51
		c-15.31,3.09-30.63,6.17-45.92,9.36c-1.64,0.34-3.33,1.2-4.64,2.26c-50.13,40.49-106.25,69.77-167.39,89.68
		c-4.79,1.56-9.63,3.19-14.58,4.01c-3.8,0.63-7.81,0.05-11.73,0.01C539.8,613.34,539.76,612.98,539.72,612.62z"/>
	<path d="M790.03,359.2c-1.5,8.34,2.62,13.96,8.54,18.63c4.33,3.41,8.96,6.44,13.25,9.89c8.59,6.9,10.32,13.43,5.91,21.32
		c-4.18,7.49-13.33,10.61-22.42,7.64c-13.54-4.42-20.57-17.47-17.48-32.33C779.79,374.98,784.19,366.79,790.03,359.2z"/>
	<path d="M822.83,261.7c2.43,9.33,9.28,13.36,17.38,16.23c5.74,2.03,11.53,4.02,17,6.66c7.63,3.68,10.58,10.3,8.92,18.33
		c-1.53,7.41-7.38,12.3-15.52,12.95c-11.49,0.93-22.09-5.95-26.94-17.6c-4.37-10.49-3.78-21.31-1.85-32.18
		C822.08,264.61,822.49,263.16,822.83,261.7z"/>
	<path d="M827.78,224.63c2.2,9.3,8.98,13.63,17.22,16.63c6.27,2.28,12.62,4.5,18.58,7.46c7.17,3.56,10.24,11.41,8.29,19.11
		c-1.75,6.91-7.79,11.48-15.67,11.85c-10.64,0.49-21.12-6.31-26.12-17.1c-5.27-11.37-4.84-23.24-2.88-35.22
		C827.35,226.44,827.58,225.54,827.78,224.63z"/>
	<path d="M909.41,354.51c-2.67,13.07-6.97,24.8-17.11,33.29c-9.23,7.73-19.66,10.33-31.09,5.02c-7.45-3.46-10.76-9.9-9.38-17.45
		c1.48-8.12,7.16-13.62,15.29-14.03c4.77-0.24,9.58,0.42,14.37,0.73c1.75,0.12,3.48,0.48,5.23,0.63
		C897.95,363.65,901.31,362.45,909.41,354.51z"/>
	<path d="M813.67,295.49c1.36,9.96,7.74,14.1,15.49,16.99c6.15,2.29,12.39,4.43,18.32,7.2c10.85,5.08,10.36,19.83,2.9,26.18
		c-6.3,5.37-13.68,5.96-21.22,3.28c-10.19-3.62-15.74-11.41-18.14-21.66C808.95,318.65,810,305.44,813.67,295.49z"/>
	<path d="M893.84,396.57c-4.52,12.62-10.93,23.78-23.25,30.19c-9.59,4.99-19.34,5.17-28.91-0.28c-7.4-4.21-10.44-11.63-8-19.41
		c2.34-7.47,9.24-12.29,17.44-11.16c6.58,0.91,13.01,2.92,19.5,4.45c0.8,0.19,1.6,0.38,2.39,0.56
		C880.58,402.71,887.71,402.41,893.84,396.57z"/>
	<path d="M803.72,329.59c0.21,9.15,6.13,13.76,13.43,17.3c5.38,2.61,10.85,5.06,16.04,8c5.18,2.93,8.07,7.55,7.42,13.71
		c-0.7,6.62-3.84,11.79-10.04,14.67c-10.2,4.75-23.27,0.44-29.5-9.54c-5.12-8.19-5.52-17.11-3.7-26.17
		c1.24-6.14,3.35-12.1,5.07-18.15C802.86,329.48,803.29,329.53,803.72,329.59z"/>
	<path d="M835.9,185.23c1.86,10.68,9.92,14.98,18.3,19.1c5.35,2.63,10.77,5.26,15.7,8.58c6.24,4.21,8.52,11.8,6.43,18.68
		c-1.97,6.5-6.82,10.29-14.07,10.79c-4.93,0.34-9.53-0.87-13.77-3.43c-8.1-4.89-12.86-12.17-14.96-21.25
		C830.97,206.66,832.44,195.87,835.9,185.23z"/>
	<path d="M922.57,317.6c-2.46,13.57-6.61,25.9-17.71,34.66c-9.35,7.38-22.2,8.19-31.2,2.12c-6.83-4.61-9.35-11.71-6.85-19.3
		c2.42-7.34,9.03-11.74,17.07-11.23c4.31,0.27,8.62,0.62,12.9,1.18C910.08,326.75,912.75,326.04,922.57,317.6z"/>
	<path d="M915.65,152.74c5.83,10.45,11.04,20.51,11.04,32.32c-0.01,15.99-12.17,26.67-26.98,23.82c-8.14-1.56-14.95-9.03-15.8-17.29
		c-0.62-5.95,2.13-10.26,6.87-13.33c3.63-2.35,7.57-4.25,11.37-6.33c1.23-0.68,2.52-1.27,3.73-1.98
		C913.74,165.36,915.58,162.23,915.65,152.74z"/>
	<path d="M935.51,236.62c4.39,14.84-2.04,34.5-13.45,41.93c-8.56,5.57-20.2,5.34-28.54-0.58c-5.54-3.93-8.41-11.46-6.7-18.07
		c1.73-6.67,6.54-9.78,13.03-10.59c3.96-0.5,7.95-0.71,11.92-1.04c2.22-0.19,4.45-0.3,6.67-0.55
		C925.87,246.9,932.48,244.72,935.51,236.62z"/>
	<path d="M930.16,275.63c-0.08,12.8-1.78,24.15-9.07,33.94c-8.53,11.45-22.56,14.48-35.12,7.75c-6.02-3.23-9.3-10.15-8.21-17.32
		c1.06-6.96,5.46-11.52,12.82-12.55c4.39-0.61,8.89-0.52,13.34-0.7c3.4-0.14,6.82-0.02,10.19-0.36
		C922.12,285.6,925.53,283.33,930.16,275.63z"/>
	<path d="M930.57,194.08c3.71,11.46,6.46,22.08,3.36,33.27c-4.61,16.66-25.35,23.9-38.49,13.43c-4.26-3.4-6.56-8-6.92-13.37
		c-0.36-5.4,1.85-9.8,6.83-12.08c3.81-1.74,7.95-2.81,11.98-4.02c3.82-1.15,7.78-1.86,11.53-3.18
		C926.3,205.51,928.73,202.55,930.57,194.08z"/>
	<path d="M850.18,142.59c-1.06,7.75,2.03,13.9,7.25,19.07c4.16,4.12,8.73,7.82,12.95,11.88c2.18,2.1,4.23,4.42,5.93,6.91
		c4.28,6.27,3.89,13.33-0.77,19.23c-3.68,4.67-10.27,6.17-17.03,3.89c-12.05-4.07-20.01-15.77-19.93-29.82
		C838.65,162.05,843.48,151.99,850.18,142.59z"/>
	<path d="M895.31,118.54c-7.16,6.69-5.85,14.32-3.23,22.02c1.81,5.33,4.03,10.52,5.82,15.86c2.74,8.19,1.45,13.67-3.81,17.45
		c-5.81,4.17-13.79,3.78-19.97-0.98c-12.49-9.62-14.55-27.22-4.62-39.41C875.23,126.44,885.99,120.12,895.31,118.54z"/>
	<path d="M839.44,80.72c-6.84,23.16-7.92,46.77-5.86,70.71c0.55,6.4,0.27,12.88,0.12,19.32c-0.03,1.27-1.22,2.52-1.87,3.78
		c-0.97-1.17-2.62-2.25-2.79-3.53c-0.95-7.31-2.02-14.65-2.15-22c-0.32-17.55,1.38-34.93,6.48-51.81
		C835.06,91.6,837.4,86.21,839.44,80.72z"/>
	<path d="M861.02,45.69c-2.03,9.31-5.28,20.03-6.51,30.98c-1.52,13.48-1.32,27.15-1.94,40.74c-0.24,5.27-0.6,10.53-1.11,15.78
		c-0.11,1.08-1.18,2.06-1.81,3.09c-0.84-1.01-2.29-1.95-2.42-3.05c-0.65-5.81-1.44-11.67-1.32-17.5
		c0.43-20.29,2.98-40.28,10.24-59.4C857.72,52.19,859.83,48.26,861.02,45.69z"/>
	<path d="M924.27,96.43c12.65,28.73,17.66,58.46,10.66,89.5c-0.47,2.08-2.56,5.69-3.12,5.55c-3.05-0.78-2.42-3.92-2.29-6.18
		c0.36-6.55,0.77-13.12,1.76-19.6c3.31-21.79,0.64-43.02-5.38-63.99C925.38,99.94,924.81,98.19,924.27,96.43z"/>
	<path d="M899.67,48.79c14.04,28.35,20.58,58.14,15.53,89.86c-0.31,1.95-0.96,3.86-1.66,5.71c-0.23,0.62-1.15,1.44-1.67,1.39
		c-0.61-0.06-1.51-0.91-1.64-1.54c-0.46-2.4-0.99-4.86-0.9-7.28c0.23-6.44,0.63-12.88,1.21-19.3c2.03-22.4-2.02-43.91-9.37-64.94
		C900.71,51.38,900.17,50.09,899.67,48.79z"/>
	<path d="M885.31,36.36c11.04,19.9,14.48,66.5,5.14,74.13c-0.36-1.66-0.92-3.08-0.91-4.5c0.02-3.51,0.16-7.03,0.5-10.53
		C892.65,68.95,892.03,61.2,885.31,36.36z"/>
	<path d="M874.28,33c-7.45,24.03-1.65,48.37-1.97,72.43c-0.53,0.12-1.06,0.23-1.59,0.35c-0.65-1.44-1.56-2.83-1.89-4.34
		c-2.56-11.79-3-23.79-1.74-35.69c0.98-9.26,3.29-18.39,5.14-27.55C872.59,36.4,873.58,34.73,874.28,33z"/>
</g>
<g>
	<path d="M656.73,713.94c22.96-57.4,37.24-116.7,39.54-179.55c-0.84,1.21-1.28,1.7-1.56,2.26c-13.3,26.94-25.44,54.36-33.94,83.26
		c-8.85,30.09-13.42,60.65-9.9,92.08c0.05,0.41,0.01,0.84-0.38,1.39c-0.77-2.22-1.61-4.43-2.3-6.67c-0.73-2.36-1.35-4.75-1.96-7.15
		c-6.91-26.89-7.11-54-2.86-81.29c4.75-30.49,14.35-59.57,25.89-88.03c7.43-18.34,15.52-36.41,23.2-54.65
		c0.71-1.68,1.07-3.75,0.86-5.54c-3.28-27.65-9.71-54.54-19.21-80.73c-8.17-22.55-18.54-44.06-31.2-64.36
		c-20.5-32.87-45.74-61.8-75.05-87.16c-0.81-0.7-1.97-1.24-2.37-2.13c-0.52-1.17-0.44-2.6-0.62-3.92c1.12,0.14,2.59-0.13,3.29,0.48
		c6.08,5.28,12.21,10.54,17.97,16.16c20.99,20.48,39.78,42.83,55.88,67.37c28.47,43.38,47.17,90.64,55.65,141.88
		c0.16,0.95,0.32,1.91,0.51,2.85c0.04,0.18,0.24,0.32,0.59,0.76c0.78-1.67,1.51-3.18,2.19-4.72c12.59-28.55,24.97-57.19,34.15-87.08
		c8.48-27.6,14.2-55.67,12.9-84.73c-0.41-9.19-1.7-18.35-2.65-28.24c2.64,3.78,5.15,7.1,7.37,10.6
		c13.09,20.67,19.23,43.48,20.92,67.69c1.56,22.29-3.62,43.37-11.24,64.01c-10.42,28.24-24.48,54.77-38.44,81.34
		c-6.66,12.66-13.33,25.32-19.9,38.03c-0.7,1.36-1.07,3.06-1.08,4.6c-0.22,59-11.86,115.79-33.07,170.72
		c-1.66,4.31-3.3,8.68-5.58,12.67c-1.75,3.07-4.48,5.57-6.77,8.33C657.3,714.3,657.02,714.12,656.73,713.94z"/>
	<path d="M621.46,389.67c5.06,5.88,11.42,6.21,18.16,4.7c4.92-1.1,9.75-2.64,14.68-3.69c9.87-2.11,15.5,0.44,18.56,8.12
		c2.9,7.3-0.17,15.6-7.53,20.33c-10.97,7.06-24.3,4.51-33.06-6.28C626.74,406.06,623.46,398.21,621.46,389.67z"/>
	<path d="M571.17,310.02c8.03,3.67,14.85,1.13,21.57-2.96c4.76-2.9,9.52-5.86,14.55-8.22c7.02-3.29,13.43-1.56,18.18,4.26
		c4.38,5.37,4.46,12.35,0.23,18.51c-5.98,8.69-17,12.25-28.07,8.96c-9.98-2.96-17.32-9.64-23.92-17.29
		C572.81,312.23,572.01,311.1,571.17,310.02z"/>
	<path d="M547.7,285.07c7.88,3.82,14.87,1.5,21.76-2.62c5.25-3.13,10.49-6.36,16.04-8.89c6.68-3.04,14.02-0.68,18.37,5.16
		c3.9,5.24,3.65,12.17-0.64,17.98c-5.8,7.84-16.69,11.35-27.24,8.66c-11.12-2.83-19.31-10-26.68-18.31
		C548.74,286.42,548.23,285.74,547.7,285.07z"/>
	<path d="M687.14,302.18c7.74,9.45,13.58,19.28,13.75,31.39c0.15,11.03-4.03,19.94-14.4,24.98c-6.76,3.29-13.25,1.92-17.81-3.42
		c-4.91-5.74-5.54-12.96-1.12-18.97c2.59-3.52,5.83-6.56,8.83-9.78c1.09-1.18,2.36-2.2,3.47-3.36
		C687,315.6,688.09,312.52,687.14,302.18z"/>
	<path d="M589.87,336.06c7.87,4.79,14.49,2.66,21.02-1.18c5.18-3.05,10.31-6.24,15.71-8.85c9.88-4.77,20.07,4.11,20.27,13.07
		c0.17,7.58-3.67,13.16-9.94,16.97c-8.46,5.14-17.2,4.58-25.87,0.36C603.59,352.79,594.82,344.41,589.87,336.06z"/>
	<path d="M708.01,337.55c6.35,10.51,10.57,21.51,8,33.97c-2,9.7-7.51,16.72-16.91,20.37c-7.27,2.82-14.3,0.69-18.41-5.54
		c-3.95-5.98-3.39-13.67,2.16-18.84c4.45-4.15,9.6-7.55,14.43-11.28c0.59-0.46,1.19-0.92,1.78-1.37
		C704.7,350.52,708.61,345.28,708.01,337.55z"/>
	<path d="M608.34,362.83c6.62,5.14,13.31,3.6,20.05,0.46c4.96-2.31,9.86-4.78,14.95-6.77c5.07-1.98,10.03-1.37,14.03,2.66
		c4.29,4.32,6.15,9.55,4.62,15.61c-2.52,9.99-13.14,16.78-23.83,15.44c-8.78-1.1-15.35-5.97-20.72-12.5
		c-3.65-4.43-6.66-9.37-9.96-14.09C607.76,363.38,608.05,363.1,608.34,362.83z"/>
	<path d="M524.41,256.53c8.66,4.85,16.37,1.62,24.15-1.96c4.96-2.28,9.96-4.61,15.17-6.19c6.6-2,13.31,0.77,16.99,6.23
		c3.48,5.15,3.37,10.79-0.47,16.23c-2.61,3.7-6.13,6.27-10.4,7.8c-8.16,2.92-16.08,2.09-23.74-1.66
		C536.79,272.42,529.97,265.14,524.41,256.53z"/>
	<path d="M668.53,271.5c8.21,9.59,14.58,19.66,14.38,32.61c-0.17,10.91-7.02,20.5-16.53,23.38c-7.22,2.19-13.72-0.13-17.66-6.29
		c-3.81-5.96-3.12-13.2,1.89-18.62c2.68-2.9,5.43-5.76,8.29-8.48C667.8,285.65,668.84,283.35,668.53,271.5z"/>
	<path d="M547.44,181.1c10.79,1.9,20.95,4.01,29.33,10.84c11.35,9.25,11.9,24.06,1.32,32.93c-5.82,4.88-15.05,5.39-21.42,1.23
		c-4.58-3-6.05-7.45-5.49-12.58c0.43-3.94,1.36-7.83,2.07-11.74c0.23-1.27,0.55-2.52,0.75-3.8
		C555.3,189.76,554.14,186.65,547.44,181.1z"/>
	<path d="M618.49,215.49c13.08,5.46,23.32,21.39,22,33.79c-0.99,9.3-7.89,17.43-16.91,19.94c-5.99,1.66-13-0.65-16.7-5.69
		c-3.74-5.08-3.16-10.3,0.01-15.38c1.93-3.1,4.09-6.05,6.15-9.07c1.15-1.69,2.36-3.34,3.47-5.05
		C620.23,228.28,622.5,222.33,618.49,215.49z"/>
	<path d="M643.1,241.84c9.05,7.46,16.13,15.22,18.86,26.06c3.2,12.68-2.75,24.39-14.8,29.42c-5.77,2.41-12.58,0.74-17.04-4.18
		c-4.33-4.77-5.02-10.54-1.5-16.35c2.1-3.48,4.77-6.61,7.21-9.88c1.87-2.49,3.93-4.85,5.64-7.45
		C645.54,253.32,645.9,249.58,643.1,241.84z"/>
	<path d="M585.42,194.41c10.28,3.99,19.41,8.18,25.57,16.85c9.17,12.91,2.32,31.82-12.71,35.1c-4.88,1.06-9.47,0.04-13.5-2.82
		c-4.04-2.87-5.89-6.98-4.63-11.84c0.97-3.71,2.6-7.27,4.07-10.84c1.39-3.37,3.17-6.6,4.41-10.03
		C591.07,204.05,590.38,200.62,585.42,194.41z"/>
	<path d="M502.39,221.74c4.9,5.23,11.04,6.59,17.74,5.88c5.33-0.57,10.6-1.68,15.92-2.33c2.75-0.34,5.58-0.45,8.34-0.22
		c6.92,0.58,11.71,4.94,13.21,11.67c1.19,5.31-1.55,10.86-7.09,14.34c-9.86,6.21-22.77,5.1-32.7-3.09
		C509.54,241.18,505.19,231.93,502.39,221.74z"/>
	<path d="M511.4,175.79c0.62,8.95,6.79,12.43,13.77,15.02c4.83,1.79,9.8,3.22,14.63,5.04c7.4,2.79,10.55,6.88,10.19,12.79
		c-0.4,6.54-5.29,11.97-12.24,13.61c-14.05,3.31-27.75-5.4-30.66-19.5C505.4,194.61,507.13,183.31,511.4,175.79z"/>
	<path d="M452.24,193.6c12.49,18.25,28.64,32.66,46.83,45.04c4.86,3.31,9.31,7.25,13.79,11.08c0.89,0.76,1.08,2.32,1.6,3.52
		c-1.39,0.01-3.12,0.56-4.12-0.06c-5.74-3.55-11.57-7.03-16.87-11.19c-12.65-9.92-24.01-21.17-33.05-34.56
		C457.44,203,454.96,198.22,452.24,193.6z"/>
	<path d="M439.83,158.02c5.44,6.82,11.18,15.33,18.24,22.53c8.69,8.87,18.52,16.63,27.81,24.93c3.6,3.22,7.14,6.51,10.56,9.91
		c0.71,0.7,0.78,2.03,1.15,3.07c-1.2,0.01-2.71,0.5-3.56-0.04c-4.5-2.9-9.12-5.72-13.19-9.18c-14.16-12.04-26.88-25.4-36.27-41.61
		C442.55,164.13,440.97,160.35,439.83,158.02z"/>
	<path d="M512.43,142.44c27.72,7.62,51.72,21.25,69.72,44.17c1.21,1.54,2.56,5.11,2.14,5.42c-2.32,1.72-4.18-0.55-5.71-1.94
		c-4.44-4.04-8.87-8.13-12.9-12.57c-13.56-14.95-30.18-25.32-48.55-33.17C515.57,143.68,514,143.07,512.43,142.44z"/>
	<path d="M464.38,132.36c28.25,6.42,53.19,18.99,72.8,40.92c1.2,1.35,2.18,2.91,3.1,4.48c0.31,0.53,0.36,1.65,0.02,1.99
		c-0.4,0.4-1.52,0.55-2.04,0.27c-1.97-1.06-4.02-2.11-5.69-3.57c-4.44-3.89-8.78-7.89-13.01-12.01
		c-14.74-14.39-32.35-23.95-51.54-30.88C466.82,133.13,465.59,132.76,464.38,132.36z"/>
	<path d="M447.25,135.38c20.51,3.66,55.6,28.16,55.62,39.2c-1.39-0.71-2.72-1.13-3.72-1.95c-2.48-2.04-4.9-4.18-7.19-6.44
		C474.64,149.01,468.78,144.97,447.25,135.38z"/>
	<path d="M438.49,141.27c12.76,19.19,33.39,29.13,50.3,43.27c-0.22,0.44-0.45,0.89-0.67,1.33c-1.4-0.38-2.91-0.52-4.17-1.16
		c-9.85-5-18.63-11.62-26.35-19.4c-6.01-6.05-11.16-12.97-16.6-19.58C439.92,144.44,439.31,142.77,438.49,141.27z"/>
</g>
<g>
</g>
<g>
</g>
<g>
</g>
<g>
</g>
<g>
</g>
<g>
</g>
<g>
</g>
<g>
</g>
<g>
</g>
<g>
</g>
<g>
</g>
<g>
</g>
<g>
</g>
<g>
</g>
<g>
</g>
</svg>
