<?xml version="1.0" encoding="utf-8"?>
<!-- Generator: Adobe Illustrator 23.0.0, SVG Export Plug-In . SVG Version: 6.00 Build 0)  -->
<svg version="1.0" id="Capa_1" xmlns="http://www.w3.org/2000/svg" xmlns:xlink="http://www.w3.org/1999/xlink" x="0px" y="0px"
	 viewBox="0 0 1024 768" style="enable-background:new 0 0 1024 768;" xml:space="preserve">
<style type="text/css">
	.st0{fill:#1D70B7;}
</style>
<path class="st0" d="M457.36,552.81c-14.95,2.97-31.43,5.92-38.92-11.1c-11.66-26.51,17.25-40.41,19.59-71.86
	c15.23,30.62,33.49,49.57,25.34,77.38C461.37,549.09,459.37,550.95,457.36,552.81z"/>
<path class="st0" d="M457.55,91.11c-13.7,1.57-27.95,5.15-38.15-8.48c-10.91-14.58-0.47-26.37,6.13-37.94
	c5.62-9.84,6.88-22.77,18.71-28.58C449.83,40.9,480.05,61.32,457.55,91.11z"/>
<path class="st0" d="M377.66,568.81c9.58,18.19,16.55,32.36,24.39,46.04c6.51,11.35,3.66,20.21-5.24,28.38
	c-8.66,7.94-18.75,11.11-29.32,5.6c-11.69-6.09-17.26-17.24-12.86-29.63C360.22,603.41,368.47,588.55,377.66,568.81z"/>
<path class="st0" d="M190.09,106.3c9.06,17.97,17.03,31.4,22.7,45.75c4.71,11.93,1.1,23.06-10.03,30.78
	c-11.58,8.03-21.63,5.41-31.52-3.69c-10.06-9.25-12.74-18.69-5.07-30.91C173.89,135.92,180.62,123.01,190.09,106.3z"/>
<path class="st0" d="M190.14,292c8.83,18.24,17.03,32.71,22.9,48.08c4.68,12.26-0.39,23.38-11.52,30.2
	c-10.08,6.17-20.12,4.78-29.08-3.54c-9.38-8.71-14.83-17.82-7.15-30.66C173.33,322.66,180.69,308.84,190.14,292z"/>
<path class="st0" d="M314.64,291.83c9.45,17.22,17.65,31.71,25.41,46.45c6.01,11.42,1.16,20.45-7.45,28.17
	c-8.8,7.89-18.62,10.12-29.17,3.86c-11.41-6.76-16.91-17.51-12.3-29.76C297,324.96,305.53,310.36,314.64,291.83z"/>
<path class="st0" d="M252.88,480.2c4.97,23.43,41.83,39.08,17.57,67.39c-10.16,11.86-27.1,12.17-36.6-0.13
	C212.12,519.34,245.14,503.07,252.88,480.2z"/>
<path class="st0" d="M252.39,389.23c6.33,22.86,41.73,37.97,18.51,66.46c-9.96,12.22-26.26,12.85-36.37,0.64
	C211.4,428.38,244.57,411.94,252.39,389.23z"/>
<path class="st0" d="M252.31,569.6c10.31,19.44,17.37,32.46,24.14,45.63c6.62,12.89,0.83,22.35-9.03,30.46
	c-9.53,7.84-19.47,7.55-29.17,0.68c-10.7-7.57-15.52-17.84-9.73-30.39C235.02,601.89,242.63,588.32,252.31,569.6z"/>
<path class="st0" d="M123.53,383.2c9.71,18.82,17.5,32.45,23.86,46.71c4.85,10.87,2.11,21.27-7.63,28.54
	c-10.7,7.98-21.92,7.33-32.67-0.37c-10.39-7.44-11.67-18.15-7.28-28.6C105.55,415.8,113.27,402.93,123.53,383.2z"/>
<path class="st0" d="M123.61,104.38c10.25,20.51,18.41,34.9,24.69,50.06c4.63,11.19-1.02,20.45-10.14,27.52
	c-9.62,7.45-19.2,7.34-29.04,0.17c-9.61-7.01-14.46-16.73-10.24-27.51C104.83,139.41,113.21,125.16,123.61,104.38z"/>
<path class="st0" d="M251.95,292.94c9.9,17.83,17.77,31.12,24.76,44.85c6.49,12.76,0.4,22.2-9.47,30.36
	c-9.68,8-19.47,7.45-29.04,0.51c-10.53-7.63-15.46-18.06-9.79-30.51C234.81,324.12,242.61,310.71,251.95,292.94z"/>
<path class="st0" d="M251.85,105.58c10.44,19.24,18.39,32.64,25.09,46.64c6.15,12.85-0.51,22.22-10.49,30.09
	c-8.59,6.76-17.42,7.18-26.4,1.28c-10.72-7.04-17.39-16.91-12.26-29.61C233.68,139.36,241.74,125.62,251.85,105.58z"/>
<path class="st0" d="M59.99,291.75c10.21,19.27,18.38,32.51,24.38,46.66c5.03,11.88,1.21,22.64-9.7,30.5
	c-9.99,7.19-19.87,6.62-29.07-0.68c-10.02-7.95-14.49-18.22-8.53-30.72C43.4,324.27,50.19,311.26,59.99,291.75z"/>
<path class="st0" d="M123.78,292.12c9.38,18.23,16.88,31.78,23.4,45.79c5.79,12.44,1.13,22.81-9.13,30.63
	c-9.44,7.2-19.31,7.27-29.17,0.08c-10.99-8.01-14.11-19.02-9.11-30.76C105.76,323.79,113.91,310.64,123.78,292.12z"/>
<path class="st0" d="M60.18,105.93c9.69,17.91,17.19,30.34,23.29,43.43c6.12,13.13,2.6,24.38-9.17,33.32
	c-10.27,7.8-19.89,5.77-28.89-1.34c-11.43-9.03-14.12-20.26-6.87-33.56C45.03,135.89,51.02,123.72,60.18,105.93z"/>
<path class="st0" d="M314.7,106.19c10.24,18.16,17.54,30.92,24.67,43.78c7.01,12.65,2.16,22.27-7.98,30.57
	c-9.14,7.49-18.46,9.83-29.06,2.66c-11.22-7.59-15.52-18.45-10.91-30.4C297.07,138.16,305.36,124.54,314.7,106.19z"/>
<path class="st0" d="M315.49,388.79c5.8,23.37,42.16,38.11,18.73,66.92c-8.73,10.74-24.02,13.23-34.13,2.63
	C273,429.93,308.29,412.01,315.49,388.79z"/>
<path class="st0" d="M377.71,383.14c9.44,17.59,16.28,31.58,24.27,44.86c6.8,11.31,3.73,20.58-4.75,28.27
	c-9.39,8.51-20.38,10.15-32.2,3.88c-11.49-6.1-14.18-16.73-10.57-26.98C359.99,417.46,368.39,402.75,377.71,383.14z"/>
<path class="st0" d="M60.41,199.57c9.67,18.65,17.68,32.02,23.64,46.25c4.87,11.63,2.91,23.17-9.16,30.26
	c-9.85,5.79-20.78,6.31-29.82-0.65c-9.97-7.67-13.93-18.23-7.48-30.72C44.63,231.04,51.47,217.27,60.41,199.57z"/>
<path class="st0" d="M123.61,570.07c9.21,17.74,15.35,29.86,21.76,41.83c7.01,13.07,5.37,24.42-6.47,33.64
	c-10.62,8.27-21.26,7.92-31.62-0.83c-11.71-9.89-11.76-21.44-5.11-34.04C108.46,598.77,114.74,586.87,123.61,570.07z"/>
<path class="st0" d="M441.56,569.17c9.2,18.94,17.28,32.74,22.65,47.53c4.18,11.52,2.02,23.48-9.95,30.65
	c-10.05,6.02-20.07,5.95-29.12-2.47c-9.46-8.8-13.59-18.64-6.8-31.15C425.35,600.8,431.96,587.65,441.56,569.17z"/>
<path class="st0" d="M60.3,383.97c9.55,17.86,17.69,30.95,23.67,44.96c4.9,11.46,3.07,22.71-8.69,30.41
	c-9.98,6.54-20.06,6.18-29.54-0.16c-11.02-7.37-14.46-17.95-8.63-30.16C43.71,415.18,51.12,401.71,60.3,383.97z"/>
<path class="st0" d="M61.38,19.42c7.39,23.1,40.74,40.8,15.61,68.04c-8.9,9.65-26.11,9.76-34.59-1.36
	C20.76,57.74,52.34,41.52,61.38,19.42z"/>
<path class="st0" d="M377.81,291.69c9.66,17.92,16.73,31.99,24.7,45.53c6.87,11.67,1.75,20.32-6.03,28.16
	c-8.08,8.15-18.02,11.35-28.79,5.56c-10.16-5.47-15.64-14.26-13.87-26.13C356.54,326.56,368.47,312.47,377.81,291.69z"/>
<path class="st0" d="M377.77,204.14c6.29,24,42.85,38.82,19.45,68.03c-9.25,11.55-25.69,12.38-34.47,2.74
	C336.94,246.58,372.2,227.99,377.77,204.14z"/>
<path class="st0" d="M441.48,291.26c8.81,17.78,16.96,31.49,22.48,46.18c4.83,12.87,1.71,25.32-11.1,33.06
	c-9.15,5.52-18.28,4.11-26.48-2.43c-11.36-9.05-14.74-19.9-7.42-33.37C425.97,321.78,432.52,308.59,441.48,291.26z"/>
<path class="st0" d="M441.29,383.68c8.76,16.82,16.8,29.35,21.93,42.98c4.5,11.96,5.67,25.2-8.44,33.33
	c-10.09,5.82-20.29,5.68-29.51-1.55c-11.77-9.22-13.01-20.58-5.79-33.5C426.1,413.09,432.2,400.94,441.29,383.68z"/>
<path class="st0" d="M60.24,475.04c9.63,18.22,17.59,31.37,23.66,45.34c5.03,11.56,3.28,23.1-8.4,30.49
	c-9.66,6.11-20.27,5.98-29.77-0.19c-11.2-7.28-14.32-17.82-8.36-30.14C43.74,507.36,50.5,494.38,60.24,475.04z"/>
<path class="st0" d="M121.91,478.46c13.82,13.16,17.85,29.07,25.09,42.93c5.58,10.68,2.64,21.13-7.28,28.37
	c-10.67,7.79-22.08,7.4-32.74-0.03c-10.38-7.23-11.71-18.19-7.2-28.63C105.91,506.89,113.98,493.51,121.91,478.46z"/>
<path class="st0" d="M191.68,478.44c7.3,14.74,15.2,28.38,20.89,42.89c4.59,11.71,2.9,23.92-9.64,30.39
	c-11.09,5.72-22.34,4.9-32.44-4.04c-10.75-9.51-11.55-19.41-3.12-30.7C176.12,505.24,177.62,488.94,191.68,478.44z"/>
<path class="st0" d="M118.82,16.96c18.87,9.69,21.08,30.25,29.4,46.53c4.61,9.03,0.17,19.22-8.6,24.84
	c-10.51,6.73-22.17,6.61-32.74-0.27c-9.18-5.97-11.26-15.93-7.89-25.26c5.68-15.71,13.21-30.76,19.96-46.07
	c0,0.01-1.49-0.72-1.49-0.72L118.82,16.96z"/>
<path class="st0" d="M191.62,16.75c7.9,15.7,15.52,28.49,20.85,42.17c4.47,11.49,3.37,23.98-8.97,30.48
	c-10.7,5.63-22.35,5.51-32.56-2.96c-10.76-8.93-12.48-19.02-4.04-30.41C175.58,44.32,177.47,28.41,191.62,16.75z"/>
<path class="st0" d="M313.62,17.04c13.41,11.31,15.54,26.98,23.89,38.81c8.03,11.38,6.94,21.71-3.85,30.55
	c-10.05,8.23-21.67,8.8-32.57,3.08c-12.44-6.52-13.87-18.75-9.14-30.25C297.81,45.01,305.95,31.74,313.62,17.04z"/>
<path class="st0" d="M314.27,474.34c10.37,19,17.92,32.75,25.39,46.55c6.14,11.35,2.31,20.29-6.91,27.89
	c-9.22,7.61-19.86,8.12-29.92,3.61c-11.03-4.94-15.8-15.62-11.94-26.58C296.47,509.96,304.69,495.04,314.27,474.34z"/>
<path class="st0" d="M378.05,479.84c7.11,22.73,41.07,37.86,19.58,66.66c-9.44,12.65-26.78,13.71-36.41,1.76
	C339.35,521.08,370.21,502.9,378.05,479.84z"/>
<path class="st0" d="M253.44,20.89c6.02,22.89,42.93,39.11,15.43,66.65c-9.37,9.38-25.96,9.63-34.55-1.14
	C211.78,58.14,243.89,42.59,253.44,20.89z"/>
<path class="st0" d="M60.46,661.03c9.76,18.7,17.34,31.56,23.3,45.13c5.17,11.78,3.65,23.46-8.25,30.83
	c-9.71,6.01-20.9,6.15-30.15-0.29c-10.73-7.47-14.01-18.23-7.53-30.79C44.89,692.2,51.73,678.36,60.46,661.03z"/>
<path class="st0" d="M377.38,105.94c9.75,17.49,17.03,31.34,25.06,44.74c6.97,11.63,1.98,20.35-6.05,28.16
	c-8.1,7.88-17.62,12.3-28.63,5.68c-9.71-5.84-15.95-14.07-13.94-26.21C356.85,140.08,368.8,126.25,377.38,105.94z"/>
<path class="st0" d="M190.17,662.26c8.44,16.62,15.64,29.48,21.59,42.9c5.13,11.58,4.75,23.97-6.64,31.31
	c-11.4,7.34-23.9,6.91-34.99-2.95c-10.81-9.61-10.17-19.24-2.68-30.77C175.33,690.63,181.7,677.53,190.17,662.26z"/>
<path class="st0" d="M314.55,662.11c9.5,17.02,17.1,30.65,24.71,44.27c6.15,11.01,3.54,20.15-5.75,28.06
	c-10.18,8.68-21.58,8.68-32.46,2.93c-10.87-5.74-13.92-16.88-9.81-27.46C297.19,694.62,305.54,680.26,314.55,662.11z"/>
<path class="st0" d="M378.23,662.02c8.62,16.1,14.85,29.34,22.55,41.67c7.48,11.98,6.11,21.93-4.09,30.83
	c-9.95,8.69-21.65,8.39-32.52,2.96c-13.06-6.51-13-19.4-8.81-30.42C360.83,692.67,369.21,679.4,378.23,662.02z"/>
<path class="st0" d="M190.01,199.46c9.44,19.03,16.91,32.02,22.4,45.8c4.67,11.74,3.07,23.98-8.85,30.89
	c-10.81,6.27-22.23,5.9-32.46-3.19c-10.4-9.24-12.16-18.37-4.06-30.63C175.07,230.18,180.96,216.61,190.01,199.46z"/>
<path class="st0" d="M314.52,199.33c10.16,18.73,17.8,32.53,25.17,46.47c6.01,11.37,2.07,20.56-7.09,28.13
	c-9.22,7.62-19.91,8.03-30.04,3.26c-11.09-5.22-15.42-16.12-11.6-26.89C296.58,234.4,305.01,219.48,314.52,199.33z"/>
<path class="st0" d="M457.35,739.61c-14.56,0.85-31.68,6.02-39.04-11.96c-10.93-26.73,16.8-40.59,21.02-71.78
	c12.84,33.4,39.4,53.38,18.08,83.74C457.41,739.6,457.35,739.61,457.35,739.61z"/>
<path class="st0" d="M376.23,16.61c13.66,12.19,16.63,28.56,25.47,41.28c7.48,10.77,4.3,20.12-4.33,28.02
	c-9.64,8.81-21.16,8.71-32.44,3.85c-12.07-5.2-13.85-16.62-10.25-26.76C360.24,47.37,368.57,32.74,376.23,16.61z"/>
<path class="st0" d="M441.36,105.49c8.52,16.55,16.23,29.32,21.78,42.97c5.14,12.63,3.78,25.13-8.4,34.26
	c-10.21,7.66-19.67,5.71-28.9-1.92c-11.66-9.64-13.24-20.88-6.15-33.96C426.23,134.78,432.46,122.53,441.36,105.49z"/>
<path class="st0" d="M190.29,383.96c9.47,19.52,17.57,33.25,22.84,47.99c4.28,11.96,0.18,23.32-12.23,29.25
	c-10.41,4.96-20.48,3.43-29.44-4.21c-10.27-8.76-12.93-18.32-5.26-30.53C173.9,414.19,180.55,401.26,190.29,383.96z"/>
<path class="st0" d="M123.6,661.74c8.99,17.51,16.26,31.31,23.18,45.27c5.52,11.13,2.91,21.33-6.53,28.56
	c-10.23,7.84-22.06,7.68-32.82,0.77c-10.6-6.8-12.27-17.95-7.87-28.38C105.61,693.64,113.83,680.23,123.6,661.74z"/>
<path class="st0" d="M190.46,569.97c9.37,19.81,17.2,33.81,22.65,48.68c4.59,12.51-1.11,23.56-12.43,29.77
	c-10.16,5.57-20.02,3.39-29.16-4.85c-10.31-9.29-12.9-18.46-5.31-30.69C173.91,600.47,180.64,587.46,190.46,569.97z"/>
<path class="st0" d="M60.56,569.67c9.69,18.66,17.56,31.96,23.6,46.05c5.12,11.93,1.41,22.64-9.24,30.62
	c-9.84,7.37-20.01,6.75-29.1-0.32c-9.87-7.68-14.97-17.69-8.5-30.44C44.29,601.86,51.22,588.13,60.56,569.67z"/>
<path class="st0" d="M314.44,570.19c10.01,18,17.62,31.67,25.2,45.35c6.31,11.38,2.09,20.05-6.73,28.01
	c-8.9,8.04-18.84,10.53-29.17,4.57c-11.15-6.43-17.22-17.12-12.47-29.67C296.88,603.67,304.88,589.79,314.44,570.19z"/>
<path class="st0" d="M253.91,206.07c5.05,23.57,42.09,39.98,15.21,67.72c-10.63,10.97-28.13,10.59-36.4-2.97
	C215.38,242.41,243.04,226.91,253.91,206.07z"/>
<path class="st0" d="M123.51,199.68c9.53,18.72,17.61,33.09,24.24,48.1c4.9,11.1,0.29,21.07-8.99,27.74
	c-9.34,6.72-20.16,6.33-29.87,0.52c-10.33-6.18-14.1-16.58-9.71-27.34C105.36,233.55,113.65,219.25,123.51,199.68z"/>
<path class="st0" d="M441.58,200.04c8.81,17.55,16.32,30.38,21.78,44.02c4.52,11.31,4.34,23.91-6.97,31.46
	c-10.27,6.85-22.17,7.22-32.29-1.57c-10.11-8.78-11.8-19.25-5.11-31.23C426.14,229.91,432.75,216.78,441.58,200.04z"/>
<path class="st0" d="M251.84,668.37c6.58,22.99,44.24,38.15,17.53,66.37c-9.56,10.1-25.24,10.47-34.32,0.12
	C210.31,706.63,246.33,691.32,251.84,668.37z"/>
<g>
	<path d="M590.48,507.08c-14.6,2.28-28.06,0.28-40.76-6.54c-1.19-0.64-3.04-0.89-4.29-0.46c-9.08,3.12-17.54-0.6-26.18-2.18
		c-2.76-0.51-3.92-2.39-3.25-5.35c0.37-1.64,0.88-3.67,0.27-5.06c-2.52-5.77,0.79-8.67,4.59-12.23c6.23-5.85,11.93-12.3,17.55-18.75
		c4.57-5.24,7.38-11.09,7.56-18.53c0.23-9.33,4.63-16.47,14-20.21c7.66-3.06,14.35-7.41,18.94-14.98c4.12-6.79,8.7-6.52,14.04-0.54
		c0.23,0.26,0.52,0.49,0.66,0.79c4.44,9.77,13.69,13.63,22.28,18.42c2.42,1.35,3.89,1.36,5.64-0.83c1.7-2.14,3.93-3.86,5.6-6.02
		c5.78-7.46,13.64-7.57,21.91-6.55c2.95,0.36,4.15,1.89,3.87,4.87c-0.93,9.83-5.21,17.74-13.68,22.92c-1.96,1.2-4.84,1.04-7.32,1.2
		c-2.91,0.19-5.84,0.04-9.35,0.04c5.54,8.97,14.32,12.73,23.14,9.65c19.9-6.94,40.18-7.35,60.9-5.53c27.83,2.45,55.72,4.32,83.6,6
		c23.08,1.39,46.2,2.13,69.3,3.24c1.41,0.07,2.87,0.69,4.17,1.34c4.96,2.49,9.71,5.49,14.82,7.58c13.44,5.5,27.1,10.46,40.54,15.97
		c5.46,2.24,8.6,6.7,10.7,12.42c8.81,24.04,14.12,48.54,13.48,74.36c-0.38,15.16,2.42,29.99,9.69,43.72
		c5.15,9.73,13.85,15.95,21.62,23.14c7.03,6.51,13.93,13.16,20.84,19.8c0.57,0.55,0.84,1.42,1.79,3.09
		c-2.41-0.74-3.91-1.24-5.43-1.66c-6.9-1.89-13.74-4.04-20.72-5.55c-5.54-1.2-8.92-3.79-10.91-9.4
		c-3.84-10.78-8.21-21.42-12.93-31.85c-6.27-13.84-9.28-28.11-8.94-43.37c0.4-17.88-0.94-35.66-7.47-52.61
		c-1.02-2.64-2.62-5.06-5.18-7.48c-1.57,7.57-3.4,15.1-4.64,22.72c-2.53,15.54-4.86,31.11-7.05,46.71
		c-1.63,11.61,1.06,22.47,6.64,32.68c1.15,2.1,2.09,4.34,3.43,6.32c5.01,7.43,6.13,14.54,2.42,23.49
		c-7.18,17.31-4.87,35.2-0.69,53.05c1.94,8.27,2.23,16.93,3.27,25.41c-0.59-0.11-1.18-0.23-1.77-0.34
		c-0.95,1.68-2.65,3.35-2.68,5.05c-0.06,3.2,0.59,6.48,1.39,9.62c1.28,4.95-1.2,7.62-5.48,7.89c-7.74,0.48-15.53,0.14-24.72,0.14
		c2.18-2.9,3.15-4.75,4.61-6.04c9.83-8.68,12.56-20.36,12.75-32.52c0.17-10.58-1.18-21.19-2.15-31.76
		c-0.16-1.78-1.96-3.37-2.84-5.13c-1.78-3.57-5.02-7.25-4.89-10.78c0.53-13.66-4.08-25.41-11.5-36.72c-2.08,2.51-3.36,4.6-0.82,7.94
		c1.25,1.64,1.29,4.56,1.13,6.86c-0.7,10.23-2.19,20.43-2.4,30.66c-0.28,13.69,0.39,27.4,0.53,41.1c0.01,0.94-1.09,1.85-1.49,2.84
		c-1.91,4.75-3.73,9.54-5.62,14.3c-0.66,1.67-0.98,3.97-2.24,4.81c-5.69,3.82-15.29,4.23-22.62,1.24c1.65-2.07,3.01-4.25,4.82-5.95
		c9.47-8.9,13.04-20.6,13.98-32.78c1.08-13.95,1.28-28.01-5.56-41.23c-2.84-5.5-4.06-11.97-5.25-18.15c-0.89-4.61-4-3.11-6.84-3.76
		c-0.83,3.24-1.61,6.29-2.83,11.06c-2.94-5.98-3.02-13.74-11.66-10.38c-0.44,2.88-0.9,5.91-1.36,8.95
		c-0.55-0.01-1.09-0.01-1.64-0.02c-0.47-3.19-0.95-6.38-1.28-8.62c-4.78-2.34-8.91-4.37-13.44-6.59
		c-26.22,11.77-53.2,10.58-80.17-0.81c-3.79-1.6-7.74-2.91-11.31-4.89c-6.5-3.62-12.86-2.66-19.2-0.01
		c-1.35,0.57-2.8,2.02-3.28,3.38c-3.96,11.49-9.05,22.81-11.2,34.65c-3.49,19.23-12.14,37.53-10.32,57.77
		c0.67,7.49-0.58,15.24,5.96,21.4c-2.17,1.85-3.81,3.28-5.48,4.67c-3.34,2.78-4.64,6.1-3.52,10.49c1.71,6.75-2.18,12.2-9.52,12.66
		c-7.15,0.45-14.36,0.1-22.72,0.1c2.06-4.11,3.83-7.66,5.99-11.99c-5.59,0-11.32,0-17.05,0c-0.18-0.49-0.36-0.98-0.53-1.46
		c1.7-2.01,3.12-4.38,5.16-5.96c7.75-5.98,11.75-14.28,13.98-23.33c2.33-9.45,3.93-19.11,5.29-28.75c0.4-2.83-0.36-6.35-1.82-8.82
		c-3.91-6.63-4.87-13.74-5.26-21.18c-0.38-7.33-1.16-14.66-2.11-21.94c-0.2-1.56-1.54-3.56-2.91-4.27c-6.04-3.13-9.53-8.28-12-14.24
		c-6.93-16.74-13.24-33.76-20.77-50.22c-3.79-8.29-9.15-16.04-14.8-23.26C602.44,526.92,594.45,518.61,590.48,507.08z"/>
</g>
<g>
</g>
<g>
</g>
<g>
</g>
<g>
</g>
<g>
</g>
<g>
</g>
<g>
</g>
<g>
</g>
<g>
</g>
<g>
</g>
<g>
</g>
<g>
</g>
<g>
</g>
<g>
</g>
<g>
</g>
</svg>
