<?xml version="1.0" encoding="utf-8"?>
<!-- Generator: Adobe Illustrator 23.0.0, SVG Export Plug-In . SVG Version: 6.00 Build 0)  -->
<svg version="1.0" id="Capa_1" xmlns="http://www.w3.org/2000/svg" xmlns:xlink="http://www.w3.org/1999/xlink" x="0px" y="0px"
	 viewBox="0 0 768 768" style="enable-background:new 0 0 768 768;" xml:space="preserve">
<style type="text/css">
	.st0{fill:#575757;}
</style>
<g>
	<path class="st0" d="M13.38,382.38C13.39,177.92,178.99,11.55,383.07,10.95c204.97-0.6,371.55,165.93,371.56,371.45
		c0.01,205.82-166.11,371.74-371.57,371.13C178.43,752.93,13.36,587.2,13.38,382.38z M290.43,675.31c0-26.73,0-51.94,0-78.55
		c-5.06,0-9.06-0.43-12.93,0.07c-46.97,6.08-79.66-11.42-98.53-56.06c-5.35-12.66-17.23-22.65-26.54-33.51
		c-4.54-5.3-10.06-9.76-16.36-15.76c22.04-6.88,37.1-2.48,52.18,14.24c9.2,10.21,16.79,21.92,26.37,31.72
		c17.98,18.4,54.33,25.69,74.53,10.77c13.73-10.15,21.48-28.4,32.91-44.45c-12.91-2.19-24.31-3.67-35.51-6.11
		c-37.59-8.18-73.63-20.11-96.65-53.72c-30.93-45.15-28.48-124.8,2.53-170.83c5.35-7.95,5.86-19.73,6.87-29.91
		c2.07-20.88,2.47-41.93,4.53-62.81c1.09-11.07,9.38-15.87,19.31-12.22c23.58,8.68,46.54,19.03,70,28.07
		c8.47,3.26,17.62,6.67,26.47,6.68c41.07,0.06,82.2-2.49,123.2-0.96c14.64,0.55,25.74-1.68,38.28-8.69
		c17.8-9.96,36.98-17.85,56.28-24.58c15.25-5.31,27.64,0.1,29.36,17.94c1.76,18.26,1.13,36.75,2.73,55.04
		c0.94,10.81,1.2,23.41,6.83,31.8c56.82,84.51,16.88,195.4-80.77,221.46c-15.58,4.16-31.59,6.74-51.72,10.96
		c29.5,22.25,33.55,50.76,32.81,81.37c-0.7,29.28-0.15,58.59-0.15,88.23c126.06-19.68,227.53-174.11,216.07-325.28
		C680.86,196.43,541.98,71.49,383.15,71.9C224.72,72.32,87.05,197.67,75.37,352.13C64.09,501.33,166.45,656.1,290.43,675.31z"/>
</g>
</svg>
