<?xml version="1.0" encoding="utf-8"?>
<!-- Generator: Adobe Illustrator 23.0.0, SVG Export Plug-In . SVG Version: 6.00 Build 0)  -->
<svg version="1.0" id="Capa_1" xmlns="http://www.w3.org/2000/svg" xmlns:xlink="http://www.w3.org/1999/xlink" x="0px" y="0px"
	 viewBox="0 0 800 500" style="enable-background:new 0 0 800 500;" xml:space="preserve">
<style type="text/css">
	.st0{fill:#446EB4;}
	.st1{fill:#E97C30;}
	.st2{fill:#1B2D4E;}
	.st3{fill:#C56827;}
	.st4{fill:#F0883C;}
	.st5{fill:#2C497F;}
	.st6{fill:#426AAF;}
	.st7{fill:#779CD1;}
	.st8{fill:#5E84C2;}
	.st9{fill:#6085C3;}
	.st10{fill:#1F3257;}
	.st11{fill:#253F6D;}
	.st12{fill:#233A64;}
	.st13{fill:#345592;}
	.st14{fill:#375D9E;}
	.st15{fill:#2B4068;}
	.st16{fill:#44557C;}
	.st17{fill:#345693;}
	.st18{fill:#335593;}
	.st19{fill:#304E87;}
	.st20{fill:#294578;}
	.st21{fill:#2D4A80;}
	.st22{fill:#FFFFFF;}
</style>
<g>
	<g>
		<path class="st0" d="M779.28,167.79c-12.09-24.66-31.17-43.12-53.01-59.01c-33.92-24.67-71.93-40.94-111.75-53.28
			c-58.89-18.25-119.31-27.44-180.85-29.91c-11.69-0.47-23.36-1.01-35.05-0.7c-2.97,3.29-2.06,7.37-2.06,11.16
			c-0.07,41.54-0.24,83.09,0.13,124.62c0.07,8.03-2.73,11.96-10.05,15.09c-59.27,25.32-118.46,50.81-177.63,76.37
			c-41.26,17.82-82.64,35.39-123.76,53.54c-0.69,0.51-1.13,1.19-1.34,2.01c-0.13,4.06,2.86,5.86,5.76,7.55
			c10.49,6.11,20.68,12.78,32.12,17.12c3.66,1.39,6.94,3.43,10.05,5.78c21.09,10.22,43.27,17.43,65.82,23.6
			c30.31,8.3,60.94,15.02,92.17,18.87c22.86,2.9,45.76,5.39,68.79,6.5c3.02,0.14,5.37,1.74,7.83,3.14
			c9.96,1.2,19.85,3.91,30.01,1.56c1.26-0.29,2.59-0.27,3.89-0.23c29.5,1.09,58.49-3.61,87.5-7.84
			c44.3-6.47,88.14-15.33,130.55-29.78c38.72-13.19,76.12-29.48,108.95-54.57c19.39-14.81,36.55-31.78,47.07-54.15
			c7.19-15.28,12.51-31.25,10.15-48.67c-0.35-2.59,0.41-5.17,0.27-7.77C785.28,181.19,779.51,175.22,779.28,167.79z"/>
		<path class="st1" d="M84.91,306.87c16.32-5.1,31.54-12.86,47.2-19.54c44-18.75,87.81-37.97,131.73-56.9
			c39.39-16.98,78.55-34.55,118.43-50.31c13.78-5.45,17.08-12.65,16.74-26.65c-1.05-42.84-0.39-85.72-0.4-128.59
			c-33.86-0.55-67.56,1.95-101.12,6.15c-44.4,5.55-88.03,14.77-130.33,29.6c-39.43,13.82-76.86,31.44-109.11,58.55
			c-9.12,7.66-18.21,15.48-24.76,25.68c-5.25,9.48-11.82,18.16-15.41,28.63c-9.04,26.39-6.82,51.54,6.71,75.91
			c12.67,22.81,31.31,39.95,51.93,55.25C78.9,306.41,81.37,308.99,84.91,306.87z"/>
		<path class="st2" d="M786.01,255.33c0.82-7.95,1.39-15.94,2.51-23.85c1.75-12.34,2.2-24.62-0.1-36.92
			c-3.74,1.71-2.91,5.13-2.75,8.05c1.62,30.13-10.51,54.75-30.23,76.51c-27.79,30.67-62.56,50.8-100,67.14
			c-30.31,13.22-61.92,22.27-93.88,30.27c-4.03,1.01-8.17,1.58-11.83,3.73c-13.58,4.03-17.47,8.53-17.3,22.86
			c0.17,14.32-1.67,28.52-1.64,42.78c0.01,7.72-4.08,11.35-10.72,13.21c-11.31,3.18-22.98,4.46-34.58,5.93
			c-5.66,0.72-11.29,1.98-17.06,1.74c-15.81,0.64-31.53,2.65-47.35,3.1c-4.18-0.02-8.39-0.39-12.45,1.06
			c-1.72,0.96-2.85,2.26-2.4,4.4c6.04,3.65,12.73,2.27,19.01,1.72c21.71-1.92,43.49-2.84,65.16-5.61
			c48.66-6.24,96.25-16.36,142.07-34.29c30.91-12.1,60.3-26.99,86.64-47.16c30.15-23.09,54.32-50.94,62.52-89.31
			C784.8,285.87,787.38,270.72,786.01,255.33z"/>
		<path class="st3" d="M9.98,247.24c1.98,14.31,4.23,28.58,5.87,42.93c3.23,28.15,16.65,51.37,34.9,72.12
			c10.27,11.67,21.99,21.9,34.96,30.59c3.63-4.41,1.5-9.47,1.04-14.02c-1.97-19.25-3.57-38.54-6.2-57.7
			c-0.08-0.83-0.28-1.65-0.55-2.44c-2.92-5.91-8.77-8.67-13.66-12.41c-16.81-12.86-32.15-27.05-42.88-45.61
			c-3.39-5.86-6.15-11.99-8.77-18.22c-0.98-2.32-0.97-5.96-5-5.88C9.78,240.14,9.88,243.69,9.98,247.24z"/>
		<path class="st4" d="M9.68,236.6c6.67,14.14,12.67,28.58,22.9,40.81c11.66,13.95,25.45,25.39,40.14,35.9
			c1.88,1.35,3.66,2.85,5.48,4.28c0.66-0.3,1.2-0.73,1.61-1.33c1.43-2.78,3.97-4.91,4.8-8.05c0.09-0.45,0.2-0.89,0.31-1.33
			c-9.29-3.23-16.21-10.13-23.16-16.4c-13.6-12.27-26.33-25.35-35.29-41.87c-10.8-19.91-14.59-40.41-10.05-62.62
			c2.57-12.59,8.07-23.85,14.43-34.78c1.19-2.04,2.62-3.83,2.45-6.33C10.88,171.71,2.07,202.05,9.68,236.6z"/>
		<path class="st5" d="M551.64,381.54c19.13-5.36,38.34-10.46,57.38-16.14c32.11-9.57,62.64-22.87,91.57-39.78
			c26.67-15.58,50.17-34.81,68.11-60.16c12.21-17.25,19.75-36.21,19.04-57.85c-0.14-4.33-1.22-8.8,0.68-13.05
			c-1.55-9.44-5.07-18.2-9.15-26.77c-2.81,3.61,0.88,6.11,1.62,9.09c0.92,3.7,2.4,7.28,2,11.21c5.33,28.74-3.8,53.72-20.04,76.83
			c-6.43,12.93-17.47,21.85-28.11,30.81c-28.68,24.16-61.83,40.59-96.48,54.42c-16.21,6.47-32.77,11.52-49.69,15.61
			c-1.25,0.18-2.45,0.48-3.64,0.9c-19.99,6.76-40.68,10.52-61.33,14.42c-10.45,1.97-20.92,3.91-31.52,4.98
			c-2.04,0.21-5.02,0.21-4.26,3.87c3.3,2.39,7.08,1.47,10.71,1.58C516.38,388.97,534.32,386.89,551.64,381.54z"/>
		<path class="st6" d="M586.05,367.65c1-0.05,2.01-0.1,3.01-0.16c18.53-6.54,37.52-11.72,55.7-19.3
			c41.36-17.23,80.35-38.09,111.28-71.52c3.02-3.27,5.18-7.1,8.03-10.44c13.95-18.18,21.51-38.65,21.75-61.62
			c0.06-5.63-0.73-11.23-2.92-16.52c0.07,13.52-0.11,26.78-4.03,40.16c-5.27,18.01-14.98,32.99-27.29,46.4
			c-26.88,29.27-60.94,47.87-97.02,63.18c-21.96,9.32-44.28,17.69-67.47,23.47c-30.08,7.49-60.27,14.31-90.97,19.04
			c-21.68,3.34-43.46,5.83-65.17,8.79c-7.16,0.98-14.56,0.01-21.82,0.4c-13.93,0.74-27.83,0.86-41.75-0.07
			c-10.62-3.83-21.84-2.74-32.77-3.7c-18.73-1.64-37.52-2.61-56.09-5.66c-6.82-3.07-14.3-2.13-21.44-3.36
			c-42.41-7.32-83.34-19.67-123.27-35.51c-4.46-0.73-8.45-2.53-12.01-5.32c-0.6-0.45-1.24-0.83-1.9-1.2
			c-11.52-4.09-21.47-11.1-31.97-17.09c-2.81-1.61-5.61-4.1-9.18-1.53c-0.18,0.5-0.37,1-0.55,1.5c0.16,0.58,0.32,1.16,0.48,1.73
			c5.46,7.03,13.69,10.08,21.08,14.14c16.38,8.99,33.36,16.8,50.87,23.41c22.93,9.09,46.58,15.74,70.69,20.84
			c3.02,0.64,6.06,1.36,8.96,2.53c11.44,3.11,23.26,4.13,34.85,6.5c19.39,1.52,38.59,5.01,58.02,5.89
			c10.64,0.48,21.19,2.05,31.84,2.1c16.13,0.08,32.27,0.19,48.4-0.01c32.2-0.4,64.15-3.63,95.95-8.7
			c28.72-4.58,57.21-10.16,85.31-17.69C585.14,368.19,585.59,367.9,586.05,367.65z"/>
		<path class="st7" d="M131.62,342.6c29.78,11.87,60.05,22.21,91.37,29.31c15.83,3.59,31.6,7.4,47.91,8.26
			c1.99,0.11,3.95,0.99,5.92,1.51c4.42,0.04,9.83,4.07,12.45-3.09c-20.11-2.98-40.21-6.11-59.96-10.97
			c-28.79-7.08-57.6-14.12-84.83-26.27c-4.19-1.87-8.58-3.3-12.88-4.93c-2.3-1.49-4.65-3.05-7.28-3.69
			c-2.79-0.68-5.27-0.26-3.69,3.74l0.01,0C124.09,338.88,128.2,340.13,131.62,342.6z"/>
		<path class="st8" d="M289.27,378.58c-3.08,5.33-8.28,2.17-12.45,3.09c9.28,3.32,19.18,3.76,28.72,4.31
			c20.6,1.21,41.14,3.92,61.83,3.47c-1.58-3.12-4.51-4.53-7.61-4.51c-14.43,0.06-28.62-2.82-42.99-3.27
			C307.51,381.39,298.6,378.14,289.27,378.58z"/>
		<path class="st9" d="M120.63,336.46c0.39-3.24,2.23-3.36,4.76-2.31c2.03,0.84,4.14,1.52,6.21,2.26c-1.86-3.57-5.59-4.55-8.85-5.74
			c-12.44-4.53-23.12-12.28-34.63-18.49c-1.47-0.79-2.37-2.63-3.53-3.98c-3.14,1.75-5.46,4.11-5.86,7.89
			c7.32,0.62,12.83,5.43,18.39,9.18C104.53,330.24,112.39,333.59,120.63,336.46z"/>
		<path class="st10" d="M551.64,381.54c-17.68,2.65-35.36,5.31-53.04,7.96c-6.38,2.28-13.47-1.2-19.7,2.4
			c-6.86,4.83-7.13,12.33-7.47,19.52c-0.5,10.6-0.59,21.25-0.01,31.84c0.48,8.8-1.86,17.15-2.53,25.74
			c17.49-1.39,34.97-3.21,51.93-7.81c11.2-3.03,11.79-5.03,12.2-16.44c0.54-14.99,1.65-29.94,1.66-44.97
			c0.01-10.97,3.85-14.54,14.44-16.69C550.03,382.91,550.81,382.08,551.64,381.54z"/>
		<path class="st11" d="M479.87,392.63c6.23-1.1,12.71-0.78,18.73-3.12c-3.65-0.01-7.3-0.02-10.95-0.03
			c-5.58-3.37-11.27-0.14-16.58,0.56c-10.07,1.32-20.19,0.97-30.26,2.3c-11.76,1.55-23.71,2.55-35.66,1.99
			c-5.64,1.3-11.37,0.61-17.06,0.81c-13.06,0.46-16.73,4.05-16.79,16.77c-0.07,13.99,0.04,27.99-0.04,41.98
			c-0.06,11.1-2.34,13.36-13.6,14.29c-3.75,0.31-7.93-0.76-10.86,2.81c1.68,3.22,5.03,2.4,7.48,2.47
			c16.19,0.45,32.39,0.25,48.59,0.18c1.84-0.01,3.55-0.5,5.13-1.44c4.16-0.03,8.32-0.06,12.47-0.1c5.74-2.31,7-7.02,7-12.59
			c0.02-15.53-0.08-31.05,0.04-46.58c0.09-11.06,3.18-14.19,14.22-14.89c8.52-0.54,16.98-1.89,25.56-1.77
			C471.79,396.32,475.98,394.85,479.87,392.63z"/>
		<path class="st12" d="M479.87,392.63c-14.44,1.04-28.89,1.96-43.32,3.18c-7.18,0.61-11.34,5.62-11.36,13.07
			c-0.04,16.37-0.22,32.75,0.1,49.12c0.11,5.5-0.85,10.19-4.8,14.09c16.23,0.49,32.22-2.78,48.4-3.09
			c6.06-7.24,4.39-15.94,4.74-24.32c0.6-13.96-1.29-27.95,1.16-41.93C475.54,398.49,477.81,395.8,479.87,392.63z"/>
		<path class="st10" d="M408.01,472.18c-17.62-0.03-35.23-0.02-52.85-0.14c-2.73-0.02-5.76,0.98-8.11-1.44
			c-6.58-3.73-14.03-2.77-21.1-3.75c-3.57-0.49-7.25-0.12-10.83-0.88c-10.63-1.4-21.21-3.22-31.95-3.75
			c-2.4,0.54-5.59-0.35-6.3,3.35c42.9,7.21,86.03,11.23,129.58,9.58C406.98,474.16,407.5,473.17,408.01,472.18z"/>
		<path class="st13" d="M230.01,378.52c-8.88-4.33-18.76-4.92-28.14-7.4c-17.42-4.61-34.42-10.47-51.54-15.98
			c-9.07,0.26-10.32,1.7-9.34,10.58c1.53,13.91,2.07,27.9,3.68,41.8c1.08,9.32-0.27,10.54-10.31,10.74
			c-1.35,0.03-2.57,0.34-2.82,1.97c8.11,4.85,16.67,8.68,25.71,11.41c6.24,1.91,12.22,4.52,18.35,6.75
			c11.83,3,22.81,8.93,35.12,10.33c10.05,0.15,12.34-2.52,11.5-12.39c-1.12-13.12-1.35-26.31-2.49-39.44
			C218.99,388.28,220.03,381,230.01,378.52z"/>
		<path class="st14" d="M131.54,420.24c0.69-0.27,1.48-0.9,2.05-0.74c12.08,3.44,14.4,1.96,13.51-10.39
			c-1.09-15.09-2.49-30.18-4.6-45.15c-1-7.1,3.9-7.1,7.84-8.83c-10.06-4.5-20.13-8.96-30.17-13.51
			c-14.33-6.5-27.83-14.56-41.5-22.31c2.35,24.52,4.69,49.04,7.04,73.56C99.98,403.68,115.11,413.06,131.54,420.24z"/>
		<path class="st15" d="M209.6,447.22c-9.05-1.22-17.41-4.83-26.05-7.49c-2.71-0.83-5.51-1.42-8.26-2.12
			c-0.42,0.35-0.55,0.69-0.4,1.01c0.15,0.32,0.31,0.48,0.46,0.48c32.95,12.25,66.85,20.85,101.53,26.47
			c1.76-1.96,4.15-0.98,6.25-1.33c-0.84-4.18-4.59-3.21-7.27-3.99c-4.16-1.21-8.58-1.13-12.76-2.34
			C245.08,455.26,227.65,449.71,209.6,447.22z"/>
		<path class="st16" d="M175.35,439.11c0.01-0.5-0.01-0.99-0.06-1.49c-5.86-2.46-11.42-5.8-18.03-5.96
			C162.84,435.23,168.92,437.59,175.35,439.11z"/>
		<path class="st17" d="M404.88,395.69c27.73-0.26,55.29-2.75,82.77-6.22c11.86-2.08,23.7-4.29,35.58-6.21
			c18.9-3.05,37.43-7.78,56.04-12.17c2.52-0.59,5.09-1.18,6.78-3.44c-15.42,1.99-30.1,7.39-45.35,10.02
			c-23.38,4.04-46.81,7.73-70.42,10.43c-37.7,4.31-75.48,5.48-113.3,4.28c-27.34-0.87-54.68-2.77-81.76-7.25
			c-3.55-0.59-7.26-0.28-10.89-0.39c1.92,6.12,7.94,2.38,11.42,4.78c14.09,2.03,28.23,3.61,42.38,5.25
			c17.52,2.37,35.23,2.11,52.81,2.74C382.09,397.92,393.61,397.13,404.88,395.69z"/>
		<path class="st18" d="M764.06,266.24c-7.16,7.43-14.02,15.18-21.55,22.22c-21.16,19.79-46.03,33.87-71.84,46.75
			c-24.86,12.41-51.06,20.84-77.37,29.19c-1.84,0.58-3.32,1.38-4.24,3.1c17.75-3.83,34.86-9.55,51.74-16.22
			c29.02-11.47,56.61-25.58,82.1-43.56c14.88-10.5,28.17-22.84,39.34-37.31C763.14,269.24,763.47,267.64,764.06,266.24z"/>
		<path class="st19" d="M275.28,387.88c-2.95-3.5-8.03,0.47-10.95-3.13c-11.44-2.08-22.88-4.15-34.32-6.23
			c-12.53,0.14-12.6,0.14-12.52,12.46c0.1,15.94,1.13,31.84,3.01,47.67c0.8,6.78-1.03,8.28-10.9,8.57
			c17.19,6.4,35.11,9.7,53.16,12.42c6.46-1.05,8.34-5.15,7.68-11.18c-1.65-15.14,0.4-30.48-2.33-45.54
			C266.85,395.95,271.19,392.08,275.28,387.88z"/>
		<path class="st9" d="M131.62,342.6c-2.69-3.78-6.73-5.14-10.98-6.14C123.29,340.3,127.33,341.67,131.62,342.6z"/>
		<path class="st20" d="M404.88,395.69c-22.77,0.99-45.45-1.72-68.2-1.73c-6.38,0-12.75-1.87-19.24-1.36
			c-4.67,3.13-5.57,7.85-5.48,12.98c0.25,13.21-0.98,26.47,1.29,39.61c1.28,7.39-1.56,14.97,1.04,22.3
			c10.81,2.24,21.76,2.93,32.77,3.11c6.43-0.54,12.9,0.75,19.33-1.4c5.21-1.74,7.49-4.34,7.37-10.08
			c-0.34-16.11-0.12-32.23-0.12-48.35c0-10.4,2.89-13,13.76-13.6C393.23,396.86,399.31,399.05,404.88,395.69z"/>
		<path class="st21" d="M314.29,467.49c2.38-8.89,1.87-17.82,0.75-26.84c-1.7-13.64-0.6-27.37-0.49-41.05
			c0.02-2.34,1.88-4.67,2.89-7c-14.05-1.6-27.98-4.2-42.15-4.72c-10.31,3.69-11.34,4.55-9.13,19.54
			c1.52,10.37,0.86,20.63,1.31,30.94c0.16,3.59-0.55,7.24,0.92,10.76c2.38,5.71-2.63,7.6-5.62,10.53c6.45,3.04,13.95,1.41,20.36,4.6
			C293.51,465.33,303.9,466.41,314.29,467.49z"/>
	</g>
</g>
<g>
	<path class="st22" d="M112.62,146.78v12.33h-11.18v-12.33h2.23v-21.99h-2.23V113h9.22c3.96,0,6.61,0.95,7.94,2.84
		c1.33,1.89,1.99,5.65,1.99,11.28c0,4.91-0.59,8.16-1.77,9.75c-1.18,1.59-3.6,2.38-7.25,2.38h-1.45v7.53H112.62z M110.12,124.79
		v9.39h0.47h0.91c1.91,0,2.87-1.49,2.87-4.46c0-3.29-1.11-4.93-3.34-4.93H110.12z"/>
	<path class="st22" d="M145.66,141.92c0.25,2.59,0.37,4.8,0.37,6.62c0,7.27-1.73,10.91-5.2,10.91c-3.31,0-4.97-3.78-4.97-11.35
		l0.03-3.04l0.03-3.07c0-2.77-1.33-4.15-3.99-4.15c-0.09,0-0.29,0.01-0.61,0.03v8.92h2.43v12.33h-11.18v-12.33h2.3v-21.99h-2.3V113
		h10.47c3.81,0,6.35,0.82,7.63,2.45c1.28,1.63,1.93,4.87,1.93,9.71c0,5.88-1.79,9.24-5.37,10.1c-0.18,0.05-0.44,0.1-0.78,0.17
		c3.06,0.52,4.67,1.9,4.83,4.15l0.17,3.18l0.14,2.53c0.07,1.28,0.43,1.93,1.08,1.93c0.92,0,1.39-1.52,1.39-4.56v-0.74H145.66z
		 M131.34,133.31h0.74c2.88,0,4.32-1.33,4.32-3.99c0-3.04-1.4-4.56-4.19-4.56c-0.18,0-0.47,0.01-0.88,0.03V133.31z"/>
	<path class="st22" d="M147.82,141.62v-10.27c0-7.75,0.6-12.86,1.79-15.35c1.19-2.49,3.65-3.73,7.36-3.73
		c3.49,0,5.82,1.29,6.99,3.87c1.17,2.58,1.76,7.67,1.76,15.29v10.2c0,7.03-0.63,11.82-1.89,14.39c-1.26,2.57-3.63,3.85-7.09,3.85
		c-3.54,0-5.91-1.23-7.11-3.7S147.82,148.84,147.82,141.62z M154.61,131.52v8.58c0,4.48,0.74,6.72,2.23,6.72
		c1.4,0,2.09-2.26,2.09-6.79v-8.82l-0.07-1.99l-0.03-1.39c-0.09-1.94-0.78-2.9-2.06-2.9C155.33,124.93,154.61,127.13,154.61,131.52z
		"/>
	<path class="st22" d="M188.26,113v20.37h-3.92v-8.58h-2.97v21.99h2.2v12.33h-11.18v-12.33h2.53v-21.99h-3.11v8.58h-3.92V113H188.26
		z"/>
	<path class="st22" d="M208.73,113v18.44h-5.34v-6.65h-4.53v8.28h5.64v4.73h-5.64v8.99h4.53v-6.72h5.78v19.05h-18.98v-12.33h2.23
		v-21.99h-2.23V113H208.73z"/>
	<path class="st22" d="M223.05,113v11.79h-2.43v21.99h2.43v12.33h-11.18v-12.33h2.3v-21.99h-2.3V113H223.05z M217.38,102.7h6.72
		l-7.23,6.15H214L217.38,102.7z"/>
	<path class="st22" d="M249.47,113v11.79h-2.26v34.32h-7.06l-7.77-36.41v24.08h2.63v12.33h-9.32v-12.33h2.3v-21.99h-2.3V113h10.2
		l6.92,32.23v-20.44h-2.67V113H249.47z"/>
	<path class="st22" d="M272.95,146.78v12.33h-11.18v-12.33h2.4l-0.71-6.25h-5l-0.74,6.25h2.6v12.33h-9.32v-12.33h2.13l4.59-33.78
		h8.51l4.73,33.78H272.95z M262.81,135.81l-1.86-14.19l-1.93,14.19H262.81z"/>
	<path class="st22" d="M291.22,113v16.25h-6.15l-0.1-1.22c-0.14-2.09-0.72-3.14-1.76-3.14c-1.26,0-1.89,0.8-1.89,2.4
		c0,1.82,1.09,3.41,3.28,4.76c3.45,2.16,5.64,4.14,6.57,5.93c0.93,1.79,1.4,4.93,1.4,9.41c0,8.31-2.12,12.46-6.35,12.46
		c-2.27,0-4.1-1.34-5.47-4.02v3.28h-5.78v-17.53h5.78v0.68c0,3.04,0.8,4.56,2.4,4.56c1.49,0,2.23-1.07,2.23-3.21
		c0-2.21-0.84-3.88-2.53-5.03l-3.38-2.33c-3.38-2.32-5.07-6.14-5.07-11.45c0-8.38,2.06-12.57,6.18-12.57c2.05,0,3.67,1.34,4.86,4.02
		V113H291.22z"/>
	<path class="st22" d="M123.75,170.51v-2.63h5.78v18.44h-5.78v-0.84c0-3.78-0.77-5.67-2.3-5.67c-1.06,0-1.71,0.63-1.94,1.87
		c-0.24,1.25-0.35,4.76-0.35,10.52c0,6.33,0.77,9.49,2.3,9.49c1.42,0,2.13-1.76,2.13-5.27v-1.99v-1.66h6.35
		c0.22,2.45,0.34,4.93,0.34,7.43c0,9.68-2.93,14.52-8.78,14.52c-3.99,0-6.53-1.38-7.62-4.15c-1.09-2.77-1.64-9.18-1.64-19.22
		c0-9.73,0.46-16.2,1.39-19.41c0.92-3.21,2.78-4.81,5.57-4.81C121.24,167.13,122.76,168.25,123.75,170.51z"/>
	<path class="st22" d="M153.68,201.65v12.33H142.5v-12.33h2.4l-0.71-6.25h-5l-0.74,6.25h2.6v12.33h-9.32v-12.33h2.13l4.59-33.78
		h8.51l4.73,33.78H153.68z M142.8,157.57h6.72l-7.23,6.15h-2.87L142.8,157.57z M143.55,190.67l-1.86-14.19l-1.93,14.19H143.55z"/>
	<path class="st22" d="M178.68,196.79c0.25,2.59,0.37,4.8,0.37,6.62c0,7.27-1.73,10.91-5.2,10.91c-3.31,0-4.97-3.78-4.97-11.35
		l0.03-3.04l0.03-3.07c0-2.77-1.33-4.15-3.99-4.15c-0.09,0-0.29,0.01-0.61,0.03v8.92h2.43v12.33h-11.18v-12.33h2.3v-21.99h-2.3
		v-11.79h10.47c3.81,0,6.35,0.82,7.63,2.45c1.28,1.63,1.93,4.87,1.93,9.71c0,5.88-1.79,9.24-5.37,10.1
		c-0.18,0.05-0.44,0.1-0.78,0.17c3.06,0.52,4.67,1.9,4.83,4.15l0.17,3.18l0.14,2.53c0.07,1.28,0.43,1.93,1.08,1.93
		c0.92,0,1.39-1.52,1.39-4.56v-0.74H178.68z M164.36,188.17h0.74c2.88,0,4.32-1.33,4.32-3.99c0-3.04-1.4-4.56-4.19-4.56
		c-0.18,0-0.47,0.01-0.88,0.03V188.17z"/>
	<path class="st22" d="M204.42,167.87v11.79h-2.26v34.32h-7.06l-7.77-36.41v24.08h2.63v12.33h-9.32v-12.33h2.3v-21.99h-2.3v-11.79
		h10.2l6.92,32.23v-20.44h-2.67v-11.79H204.42z"/>
	<path class="st22" d="M217.97,167.87v11.79h-2.43v21.99h2.43v12.33h-11.18v-12.33h2.3v-21.99h-2.3v-11.79H217.97z"/>
	<path class="st22" d="M232.43,170.51v-2.63h5.78v18.44h-5.78v-0.84c0-3.78-0.77-5.67-2.3-5.67c-1.06,0-1.71,0.63-1.94,1.87
		c-0.24,1.25-0.35,4.76-0.35,10.52c0,6.33,0.77,9.49,2.3,9.49c1.42,0,2.13-1.76,2.13-5.27v-1.99v-1.66h6.35
		c0.22,2.45,0.34,4.93,0.34,7.43c0,9.68-2.93,14.52-8.78,14.52c-3.99,0-6.53-1.38-7.62-4.15c-1.09-2.77-1.64-9.18-1.64-19.22
		c0-9.73,0.46-16.2,1.39-19.41c0.92-3.21,2.78-4.81,5.57-4.81C229.92,167.13,231.44,168.25,232.43,170.51z"/>
	<path class="st22" d="M262.36,201.65v12.33h-11.18v-12.33h2.4l-0.71-6.25h-5l-0.74,6.25h2.6v12.33h-9.32v-12.33h2.13l4.59-33.78
		h8.51l4.73,33.78H262.36z M252.22,190.67l-1.86-14.19l-1.93,14.19H252.22z"/>
	<path class="st22" d="M280.63,167.87v16.25h-6.15l-0.1-1.22c-0.14-2.09-0.72-3.14-1.76-3.14c-1.26,0-1.89,0.8-1.89,2.4
		c0,1.82,1.09,3.41,3.28,4.76c3.45,2.16,5.64,4.14,6.57,5.93c0.93,1.79,1.4,4.93,1.4,9.41c0,8.31-2.12,12.46-6.35,12.46
		c-2.27,0-4.1-1.34-5.47-4.02v3.28h-5.78v-17.53h5.78v0.68c0,3.04,0.8,4.56,2.4,4.56c1.49,0,2.23-1.07,2.23-3.21
		c0-2.21-0.84-3.88-2.53-5.03l-3.38-2.33c-3.38-2.32-5.07-6.14-5.07-11.45c0-8.38,2.06-12.57,6.18-12.57c2.05,0,3.67,1.34,4.86,4.02
		v-3.24H280.63z"/>
</g>
<g>
	<path class="st22" d="M359.05,252.53v13.71h-12.43v-13.71h2.48v-24.46h-2.48v-13.11h10.26c4.41,0,7.35,1.05,8.83,3.16
		c1.48,2.1,2.22,6.29,2.22,12.55c0,5.46-0.66,9.07-1.97,10.84c-1.31,1.77-4,2.65-8.06,2.65h-1.62v8.38H359.05z M356.27,228.07v10.44
		h0.53h1.01c2.13,0,3.19-1.65,3.19-4.96c0-3.66-1.24-5.48-3.72-5.48H356.27z"/>
	<path class="st22" d="M395.79,247.12c0.28,2.88,0.41,5.33,0.41,7.36c0,8.09-1.93,12.13-5.79,12.13c-3.68,0-5.52-4.21-5.52-12.62
		l0.04-3.38l0.04-3.42c0-3.08-1.48-4.62-4.43-4.62c-0.1,0-0.33,0.01-0.68,0.04v9.92h2.71v13.71h-12.43v-13.71h2.55v-24.46h-2.55
		v-13.11h11.65c4.23,0,7.06,0.91,8.49,2.72c1.43,1.82,2.14,5.42,2.14,10.8c0,6.54-1.99,10.28-5.97,11.23
		c-0.2,0.05-0.49,0.11-0.86,0.19c3.41,0.58,5.2,2.12,5.37,4.62l0.19,3.53l0.15,2.82c0.08,1.43,0.48,2.14,1.2,2.14
		c1.03,0,1.54-1.69,1.54-5.07v-0.83H395.79z M379.86,237.54h0.83c3.21,0,4.81-1.48,4.81-4.43c0-3.38-1.55-5.07-4.66-5.07
		c-0.2,0-0.53,0.01-0.98,0.04V237.54z"/>
	<path class="st22" d="M398.2,246.78v-11.42c0-8.62,0.66-14.31,1.99-17.07c1.33-2.77,4.06-4.15,8.19-4.15c3.88,0,6.47,1.43,7.78,4.3
		c1.3,2.87,1.95,8.53,1.95,17v11.35c0,7.81-0.7,13.15-2.1,16c-1.4,2.85-4.03,4.28-7.89,4.28c-3.93,0-6.57-1.37-7.91-4.11
		S398.2,254.82,398.2,246.78z M405.75,235.55v9.54c0,4.98,0.83,7.48,2.48,7.48c1.55,0,2.33-2.52,2.33-7.55v-9.8l-0.07-2.22
		l-0.04-1.54c-0.1-2.15-0.86-3.23-2.29-3.23C406.55,228.22,405.75,230.67,405.75,235.55z"/>
	<path class="st22" d="M443.17,214.96v22.65h-4.36v-9.54h-3.31v24.46h2.44v13.71h-12.44v-13.71h2.82v-24.46h-3.46v9.54h-4.36v-22.65
		H443.17z"/>
	<path class="st22" d="M465.94,214.96v20.51H460v-7.4h-5.03v9.2h6.27v5.26h-6.27v9.99H460v-7.48h6.42v21.19h-21.11v-13.71h2.48
		v-24.46h-2.48v-13.11H465.94z"/>
	<path class="st22" d="M481.87,214.96v13.11h-2.71v24.46h2.71v13.71h-12.43v-13.71h2.55v-24.46h-2.55v-13.11H481.87z M475.56,203.5
		h7.48l-8.04,6.84h-3.19L475.56,203.5z"/>
	<path class="st22" d="M511.25,214.96v13.11h-2.52v38.17h-7.85l-8.64-40.5v26.79h2.93v13.71H484.8v-13.71h2.55v-24.46h-2.55v-13.11
		h11.34l7.7,35.84v-22.73h-2.97v-13.11H511.25z"/>
	<path class="st22" d="M537.36,252.53v13.71h-12.43v-13.71h2.67l-0.79-6.95h-5.56l-0.83,6.95h2.89v13.71h-10.37v-13.71h2.37
		l5.11-37.57h9.47l5.26,37.57H537.36z M526.09,240.32l-2.07-15.78l-2.14,15.78H526.09z"/>
	<path class="st22" d="M557.68,214.96v18.07h-6.84l-0.11-1.35c-0.15-2.33-0.8-3.49-1.95-3.49c-1.4,0-2.1,0.89-2.1,2.67
		c0,2.03,1.21,3.79,3.64,5.3c3.83,2.4,6.27,4.6,7.31,6.59c1.04,1.99,1.56,5.48,1.56,10.46c0,9.24-2.35,13.86-7.06,13.86
		c-2.53,0-4.56-1.49-6.09-4.47v3.64h-6.42v-19.5h6.42v0.75c0,3.38,0.89,5.07,2.67,5.07c1.65,0,2.48-1.19,2.48-3.57
		c0-2.45-0.94-4.32-2.82-5.6l-3.76-2.59c-3.76-2.58-5.64-6.82-5.64-12.74c0-9.32,2.29-13.97,6.88-13.97c2.28,0,4.08,1.49,5.41,4.47
		v-3.61H557.68z"/>
	<path class="st22" d="M584.62,214.96h9.69c5.13,0,8.45,1.13,9.96,3.38c1.5,2.25,2.25,7.24,2.25,14.95v11.8
		c0,9.09-0.72,14.89-2.16,17.39c-1.44,2.5-4.79,3.76-10.05,3.76h-9.69v-13.71h2.52v-24.46h-2.52V214.96z M594.31,228.07v24.46
		l1.09-0.04c1.6,0,2.6-0.34,2.99-1.03c0.39-0.69,0.58-2.46,0.58-5.32v-10.37c0-3.48-0.2-5.64-0.6-6.46
		c-0.4-0.83-1.43-1.24-3.08-1.24H594.31z"/>
	<path class="st22" d="M630.46,214.96v20.51h-5.94v-7.4h-5.03v9.2h6.27v5.26h-6.27v9.99h5.03v-7.48h6.42v21.19h-21.11v-13.71h2.48
		v-24.46h-2.48v-13.11H630.46z"/>
	<path class="st22" d="M333.41,307.8v-11.42c0-8.62,0.66-14.31,1.99-17.07c1.33-2.77,4.06-4.15,8.19-4.15c3.88,0,6.47,1.43,7.78,4.3
		c1.3,2.87,1.95,8.53,1.95,17v11.34c0,7.81-0.7,13.15-2.1,16c-1.4,2.85-4.03,4.28-7.89,4.28c-3.93,0-6.57-1.37-7.91-4.11
		S333.41,315.84,333.41,307.8z M340.96,296.57v9.54c0,4.98,0.83,7.48,2.48,7.48c1.55,0,2.33-2.52,2.33-7.55v-9.8l-0.08-2.22
		l-0.04-1.54c-0.1-2.15-0.86-3.23-2.29-3.23C341.76,289.24,340.96,291.68,340.96,296.57z"/>
	<path class="st22" d="M382.32,308.14c0.28,2.88,0.41,5.33,0.41,7.36c0,8.09-1.93,12.13-5.79,12.13c-3.68,0-5.52-4.21-5.52-12.62
		l0.04-3.38l0.04-3.42c0-3.08-1.48-4.62-4.43-4.62c-0.1,0-0.33,0.01-0.68,0.04v9.92h2.71v13.71h-12.43v-13.71h2.55v-24.46h-2.55
		v-13.11h11.65c4.23,0,7.06,0.91,8.49,2.72c1.43,1.82,2.14,5.42,2.14,10.8c0,6.54-1.99,10.28-5.97,11.23
		c-0.2,0.05-0.49,0.11-0.86,0.19c3.41,0.58,5.2,2.12,5.37,4.62l0.19,3.53l0.15,2.82c0.08,1.43,0.48,2.14,1.2,2.14
		c1.03,0,1.54-1.69,1.54-5.07v-0.83H382.32z M366.4,298.56h0.83c3.21,0,4.81-1.48,4.81-4.43c0-3.38-1.55-5.07-4.66-5.07
		c-0.2,0-0.53,0.01-0.98,0.04V298.56z"/>
	<path class="st22" d="M396.94,275.98v13.11h-2.71v24.46h2.71v13.71h-12.43v-13.71h2.55v-24.46h-2.55v-13.11H396.94z"/>
	<path class="st22" d="M419.56,275.98v20.51h-6.76l0.11-4.25c0-2-0.75-3-2.25-3c-2,0-3.01,4.42-3.01,13.26
		c0,7.14,0.95,10.71,2.86,10.71c1.53,0,2.29-1.7,2.29-5.11v-1.69h-2.37v-7.44h11.91v7.44h-2.78v20.85h-3.46l-1.43-4.28
		c-0.1,0.25-0.18,0.44-0.23,0.56c-1.25,3.03-3.33,4.54-6.24,4.54c-3.23,0-5.37-1.2-6.42-3.61c-1.05-2.4-1.58-7.27-1.58-14.61v-3.46
		v-11.04c0-7.86,0.54-13.2,1.62-16c1.08-2.8,3.12-4.21,6.12-4.21c2.71,0,4.43,1.15,5.18,3.46v-2.63H419.56z"/>
	<path class="st22" d="M444.95,275.98v20.51h-5.94v-7.4h-5.03v9.2h6.27v5.26h-6.27v9.99h5.03v-7.48h6.42v21.19h-21.11v-13.71h2.48
		v-24.46h-2.48v-13.11H444.95z"/>
	<path class="st22" d="M474.9,275.98v13.11h-2.52v38.17h-7.85l-8.64-40.5v26.79h2.93v13.71h-10.37v-13.71H451v-24.46h-2.55v-13.11
		h11.34l7.7,35.84v-22.73h-2.97v-13.11H474.9z"/>
	<path class="st22" d="M522.65,275.98v13.11h-1.84l-4.92,38.17h-8.6l-5.33-38.17h-2.22v-13.11h11.42v13.11h-2.18l4.06,26.63
		l2.86-26.63h-2.86v-13.11H522.65z"/>
	<path class="st22" d="M545.42,275.98v20.51h-5.94v-7.4h-5.03v9.2h6.27v5.26h-6.27v9.99h5.03v-7.48h6.42v21.19h-21.11v-13.71h2.48
		v-24.46h-2.48v-13.11H545.42z"/>
	<path class="st22" d="M568.48,275.98v20.51h-6.76l0.11-4.25c0-2-0.75-3-2.25-3c-2,0-3.01,4.42-3.01,13.26
		c0,7.14,0.95,10.71,2.86,10.71c1.53,0,2.29-1.7,2.29-5.11v-1.69h-2.37v-7.44h11.91v7.44h-2.78v20.85h-3.46l-1.43-4.28
		c-0.1,0.25-0.18,0.44-0.23,0.56c-1.25,3.03-3.33,4.54-6.24,4.54c-3.23,0-5.37-1.2-6.42-3.61s-1.58-7.27-1.58-14.61v-3.46v-11.04
		c0-7.86,0.54-13.2,1.62-16c1.08-2.8,3.12-4.21,6.12-4.21c2.71,0,4.43,1.15,5.18,3.46v-2.63H568.48z"/>
	<path class="st22" d="M593.88,275.98v20.51h-5.94v-7.4h-5.03v9.2h6.27v5.26h-6.27v9.99h5.03v-7.48h6.42v21.19h-21.11v-13.71h2.48
		v-24.46h-2.48v-13.11H593.88z"/>
	<path class="st22" d="M619.09,275.98v22.65h-4.36v-9.54h-3.31v24.46h2.44v13.71h-12.44v-13.71h2.82v-24.46h-3.46v9.54h-4.36v-22.65
		H619.09z"/>
	<path class="st22" d="M644.71,313.55v13.71h-12.43v-13.71h2.67l-0.79-6.95h-5.56l-0.83,6.95h2.89v13.71h-10.37v-13.71h2.37
		l5.11-37.57h9.47l5.26,37.57H644.71z M633.44,301.34l-2.07-15.78l-2.14,15.78H633.44z"/>
	<path class="st22" d="M668.04,303.56v23.71h-21.19v-13.71h2.55v-24.46h-2.55v-13.11h12.43v13.11h-2.71v24.46h5.03v-9.99H668.04z"/>
</g>
<g>
</g>
<g>
</g>
<g>
</g>
<g>
</g>
<g>
</g>
<g>
</g>
<g>
</g>
<g>
</g>
<g>
</g>
<g>
</g>
<g>
</g>
<g>
</g>
<g>
</g>
<g>
</g>
<g>
</g>
</svg>
