<?xml version="1.0" encoding="utf-8"?>
<!-- Generator: Adobe Illustrator 23.0.0, SVG Export Plug-In . SVG Version: 6.00 Build 0)  -->
<svg version="1.0" id="Capa_1" xmlns="http://www.w3.org/2000/svg" xmlns:xlink="http://www.w3.org/1999/xlink" x="0px" y="0px"
	 viewBox="0 0 1280 100" style="enable-background:new 0 0 1280 100;" xml:space="preserve">
<style type="text/css">
	.st0{opacity:0.5;}
</style>
<rect x="155" y="-22" transform="matrix(0.8882 0.4594 -0.4594 0.8882 42.9891 -66.6736)" class="st0" width="7" height="154"/>
<rect x="176" y="-22" transform="matrix(0.8882 0.4594 -0.4594 0.8882 45.3368 -76.322)" class="st0" width="7" height="154"/>
<rect x="198" y="-22" transform="matrix(0.8882 0.4594 -0.4594 0.8882 47.7962 -86.4298)" class="st0" width="7" height="154"/>
<rect x="219" y="-22" transform="matrix(0.8882 0.4594 -0.4594 0.8882 50.1439 -96.0782)" class="st0" width="7" height="154"/>
<rect x="242" y="-22" transform="matrix(0.8882 0.4594 -0.4594 0.8882 52.7152 -106.6455)" class="st0" width="7" height="154"/>
<rect x="263" y="-22" transform="matrix(0.8882 0.4594 -0.4594 0.8882 55.0629 -116.2939)" class="st0" width="7" height="154"/>
<rect x="285" y="-22" transform="matrix(0.8882 0.4594 -0.4594 0.8882 57.5224 -126.4017)" class="st0" width="7" height="154"/>
<rect x="306" y="-22" transform="matrix(0.8882 0.4594 -0.4594 0.8882 59.8701 -136.0501)" class="st0" width="7" height="154"/>
<rect x="-19" y="-22" transform="matrix(0.8882 0.4594 -0.4594 0.8882 23.5368 13.2701)" class="st0" width="7" height="154"/>
<rect x="2" y="-22" transform="matrix(0.8882 0.4594 -0.4594 0.8882 25.8845 3.6218)" class="st0" width="7" height="154"/>
<rect x="24" y="-22" transform="matrix(0.8882 0.4594 -0.4594 0.8882 28.3439 -6.4861)" class="st0" width="7" height="154"/>
<rect x="45" y="-22" transform="matrix(0.8882 0.4594 -0.4594 0.8882 30.6916 -16.1345)" class="st0" width="7" height="154"/>
<rect x="68" y="-22" transform="matrix(0.8882 0.4594 -0.4594 0.8882 33.2629 -26.7017)" class="st0" width="7" height="154"/>
<rect x="89" y="-22" transform="matrix(0.8882 0.4594 -0.4594 0.8882 35.6106 -36.3501)" class="st0" width="7" height="154"/>
<rect x="111" y="-22" transform="matrix(0.8882 0.4594 -0.4594 0.8882 38.0701 -46.458)" class="st0" width="7" height="154"/>
<rect x="132" y="-22" transform="matrix(0.8882 0.4594 -0.4594 0.8882 40.4178 -56.1063)" class="st0" width="7" height="154"/>
<rect x="503" y="-22" transform="matrix(0.8882 0.4594 -0.4594 0.8882 81.8936 -226.5612)" class="st0" width="7" height="154"/>
<rect x="524" y="-22" transform="matrix(0.8882 0.4594 -0.4594 0.8882 84.2413 -236.2096)" class="st0" width="7" height="154"/>
<rect x="546" y="-22" transform="matrix(0.8882 0.4594 -0.4594 0.8882 86.7008 -246.3174)" class="st0" width="7" height="154"/>
<rect x="567" y="-22" transform="matrix(0.8882 0.4594 -0.4594 0.8882 89.0485 -255.9658)" class="st0" width="7" height="154"/>
<rect x="590" y="-22" transform="matrix(0.8882 0.4594 -0.4594 0.8882 91.6198 -266.5331)" class="st0" width="7" height="154"/>
<rect x="611" y="-22" transform="matrix(0.8882 0.4594 -0.4594 0.8882 93.9675 -276.1815)" class="st0" width="7" height="154"/>
<rect x="633" y="-22" transform="matrix(0.8882 0.4594 -0.4594 0.8882 96.427 -286.2893)" class="st0" width="7" height="154"/>
<rect x="654" y="-22" transform="matrix(0.8882 0.4594 -0.4594 0.8882 98.7747 -295.9377)" class="st0" width="7" height="154"/>
<rect x="329" y="-22" transform="matrix(0.8882 0.4594 -0.4594 0.8882 62.4414 -146.6174)" class="st0" width="7" height="154"/>
<rect x="350" y="-22" transform="matrix(0.8882 0.4594 -0.4594 0.8882 64.789 -156.2658)" class="st0" width="7" height="154"/>
<rect x="372" y="-22" transform="matrix(0.8882 0.4594 -0.4594 0.8882 67.2485 -166.3736)" class="st0" width="7" height="154"/>
<rect x="393" y="-22" transform="matrix(0.8882 0.4594 -0.4594 0.8882 69.5962 -176.022)" class="st0" width="7" height="154"/>
<rect x="416" y="-22" transform="matrix(0.8882 0.4594 -0.4594 0.8882 72.1675 -186.5893)" class="st0" width="7" height="154"/>
<rect x="437" y="-22" transform="matrix(0.8882 0.4594 -0.4594 0.8882 74.5152 -196.2377)" class="st0" width="7" height="154"/>
<rect x="459" y="-22" transform="matrix(0.8882 0.4594 -0.4594 0.8882 76.9747 -206.3455)" class="st0" width="7" height="154"/>
<rect x="480" y="-22" transform="matrix(0.8882 0.4594 -0.4594 0.8882 79.3224 -215.9939)" class="st0" width="7" height="154"/>
<rect x="808" y="-22" transform="matrix(0.8882 0.4594 -0.4594 0.8882 115.9911 -366.6925)" class="st0" width="7" height="154"/>
<rect x="829" y="-22" transform="matrix(0.8882 0.4594 -0.4594 0.8882 118.3388 -376.3409)" class="st0" width="7" height="154"/>
<rect x="851" y="-22" transform="matrix(0.8882 0.4594 -0.4594 0.8882 120.7982 -386.4487)" class="st0" width="7" height="154"/>
<rect x="872" y="-22" transform="matrix(0.8882 0.4594 -0.4594 0.8882 123.1459 -396.0971)" class="st0" width="7" height="154"/>
<rect x="895" y="-22" transform="matrix(0.8882 0.4594 -0.4594 0.8882 125.7172 -406.6644)" class="st0" width="7" height="154"/>
<rect x="916" y="-22" transform="matrix(0.8882 0.4594 -0.4594 0.8882 128.0649 -416.3128)" class="st0" width="7" height="154"/>
<rect x="938" y="-22" transform="matrix(0.8882 0.4594 -0.4594 0.8882 130.5244 -426.4206)" class="st0" width="7" height="154"/>
<rect x="959" y="-22" transform="matrix(0.8882 0.4594 -0.4594 0.8882 132.8721 -436.069)" class="st0" width="7" height="154"/>
<rect x="677" y="-22" transform="matrix(0.8882 0.4594 -0.4594 0.8882 101.3459 -306.5049)" class="st0" width="7" height="154"/>
<rect x="698" y="-22" transform="matrix(0.8882 0.4594 -0.4594 0.8882 103.6936 -316.1533)" class="st0" width="7" height="154"/>
<rect x="721" y="-22" transform="matrix(0.8882 0.4594 -0.4594 0.8882 106.2649 -326.7206)" class="st0" width="7" height="154"/>
<rect x="742" y="-22" transform="matrix(0.8882 0.4594 -0.4594 0.8882 108.6126 -336.369)" class="st0" width="7" height="154"/>
<rect x="764" y="-22" transform="matrix(0.8882 0.4594 -0.4594 0.8882 111.0721 -346.4768)" class="st0" width="7" height="154"/>
<rect x="785" y="-22" transform="matrix(0.8882 0.4594 -0.4594 0.8882 113.4198 -356.1252)" class="st0" width="7" height="154"/>
<rect x="1156" y="-22" transform="matrix(0.8882 0.4594 -0.4594 0.8882 154.8956 -526.58)" class="st0" width="7" height="154"/>
<rect x="1177" y="-22" transform="matrix(0.8882 0.4594 -0.4594 0.8882 157.2433 -536.2285)" class="st0" width="7" height="154"/>
<rect x="1199" y="-22" transform="matrix(0.8882 0.4594 -0.4594 0.8882 159.7028 -546.3362)" class="st0" width="7" height="154"/>
<rect x="1220" y="-22" transform="matrix(0.8882 0.4594 -0.4594 0.8882 162.0505 -555.9846)" class="st0" width="7" height="154"/>
<rect x="1243" y="-22" transform="matrix(0.8882 0.4594 -0.4594 0.8882 164.6218 -566.5519)" class="st0" width="7" height="154"/>
<rect x="1264" y="-22" transform="matrix(0.8882 0.4594 -0.4594 0.8882 166.9695 -576.2003)" class="st0" width="7" height="154"/>
<rect x="1286" y="-22" transform="matrix(0.8882 0.4594 -0.4594 0.8882 169.429 -586.3082)" class="st0" width="7" height="154"/>
<rect x="1307" y="-22" transform="matrix(0.8882 0.4594 -0.4594 0.8882 171.7767 -595.9565)" class="st0" width="7" height="154"/>
<rect x="982" y="-22" transform="matrix(0.8882 0.4594 -0.4594 0.8882 135.4434 -446.6363)" class="st0" width="7" height="154"/>
<rect x="1003" y="-22" transform="matrix(0.8882 0.4594 -0.4594 0.8882 137.791 -456.2847)" class="st0" width="7" height="154"/>
<rect x="1025" y="-22" transform="matrix(0.8882 0.4594 -0.4594 0.8882 140.2505 -466.3925)" class="st0" width="7" height="154"/>
<rect x="1046" y="-22" transform="matrix(0.8882 0.4594 -0.4594 0.8882 142.5982 -476.0409)" class="st0" width="7" height="154"/>
<rect x="1069" y="-22" transform="matrix(0.8882 0.4594 -0.4594 0.8882 145.1695 -486.6082)" class="st0" width="7" height="154"/>
<rect x="1090" y="-22" transform="matrix(0.8882 0.4594 -0.4594 0.8882 147.5172 -496.2565)" class="st0" width="7" height="154"/>
<rect x="1112" y="-22" transform="matrix(0.8882 0.4594 -0.4594 0.8882 149.9767 -506.3644)" class="st0" width="7" height="154"/>
<rect x="1133" y="-22" transform="matrix(0.8882 0.4594 -0.4594 0.8882 152.3244 -516.0128)" class="st0" width="7" height="154"/>
<g>
</g>
<g>
</g>
<g>
</g>
<g>
</g>
<g>
</g>
<g>
</g>
<g>
</g>
<g>
</g>
<g>
</g>
<g>
</g>
<g>
</g>
<g>
</g>
<g>
</g>
<g>
</g>
<g>
</g>
</svg>
