<?xml version="1.0" encoding="utf-8"?>
<!-- Generator: Adobe Illustrator 23.0.0, SVG Export Plug-In . SVG Version: 6.00 Build 0)  -->
<svg version="1.0" id="Capa_1" xmlns="http://www.w3.org/2000/svg" xmlns:xlink="http://www.w3.org/1999/xlink" x="0px" y="0px"
	 viewBox="0 0 650 768" style="enable-background:new 0 0 650 768;" xml:space="preserve">
<style type="text/css">
	.st0{fill:#868686;}
</style>
<g>
	<g>
		<path d="M122.97,450.08c-18.21,2.85-35.01,0.35-50.87-8.16c-1.49-0.8-3.79-1.11-5.35-0.57c-11.33,3.89-21.89-0.74-32.67-2.72
			c-3.45-0.63-4.89-2.98-4.05-6.68c0.47-2.05,1.09-4.57,0.33-6.31c-3.15-7.2,0.99-10.82,5.73-15.26c7.78-7.3,14.88-15.35,21.91-23.4
			c5.7-6.54,9.2-13.84,9.44-23.13c0.29-11.65,5.78-20.55,17.47-25.22c9.56-3.82,17.91-9.24,23.64-18.69
			c5.14-8.47,10.86-8.14,17.52-0.67c0.28,0.32,0.65,0.61,0.82,0.98c5.54,12.19,17.09,17.01,27.8,22.98c3.03,1.69,4.86,1.7,7.03-1.04
			c2.12-2.67,4.9-4.82,6.99-7.51c7.21-9.31,17.02-9.45,27.34-8.18c3.69,0.45,5.18,2.36,4.83,6.07c-1.16,12.26-6.5,22.14-17.07,28.6
			c-2.45,1.5-6.04,1.3-9.14,1.5c-3.63,0.24-7.28,0.06-11.67,0.06c6.92,11.2,17.87,15.88,28.88,12.04
			c24.83-8.67,50.14-9.18,76.01-6.9c34.73,3.06,69.53,5.39,104.33,7.49c28.8,1.74,57.65,2.66,86.48,4.04
			c1.76,0.08,3.59,0.86,5.2,1.67c6.19,3.11,12.11,6.85,18.5,9.46c16.77,6.86,33.82,13.06,50.59,19.93
			c6.82,2.79,10.73,8.36,13.35,15.5c10.99,30,17.63,60.57,16.83,92.8c-0.47,18.92,3.03,37.42,12.1,54.55
			c6.43,12.14,17.28,19.91,26.98,28.88c8.78,8.12,17.38,16.43,26.01,24.71c0.72,0.69,1.05,1.77,2.24,3.86
			c-3.01-0.92-4.88-1.55-6.78-2.07c-8.61-2.36-17.14-5.04-25.85-6.93c-6.92-1.5-11.13-4.73-13.62-11.73
			c-4.8-13.46-10.24-26.72-16.14-39.75c-7.82-17.28-11.59-35.08-11.16-54.13c0.5-22.31-1.17-44.51-9.32-65.65
			c-1.27-3.3-3.27-6.32-6.46-9.33c-1.95,9.45-4.24,18.84-5.79,28.36c-3.16,19.39-6.07,38.83-8.8,58.29
			c-2.03,14.49,1.32,28.04,8.28,40.78c1.44,2.63,2.61,5.42,4.28,7.89c6.26,9.27,7.66,18.14,3.02,29.31
			c-8.96,21.6-6.08,43.93-0.86,66.2c2.42,10.32,2.79,21.13,4.08,31.71c-0.74-0.14-1.47-0.29-2.21-0.43c-1.18,2.1-3.3,4.18-3.34,6.3
			c-0.08,3.99,0.73,8.09,1.74,12c1.59,6.18-1.49,9.51-6.84,9.84c-9.66,0.6-19.38,0.17-30.84,0.17c2.73-3.62,3.93-5.93,5.75-7.54
			c12.27-10.83,15.68-25.4,15.91-40.58c0.21-13.2-1.47-26.45-2.69-39.64c-0.21-2.22-2.44-4.21-3.54-6.4
			c-2.22-4.45-6.27-9.05-6.1-13.45c0.66-17.05-5.09-31.71-14.36-45.83c-2.6,3.13-4.2,5.75-1.03,9.91c1.56,2.05,1.61,5.7,1.41,8.56
			c-0.87,12.76-2.73,25.49-2.99,38.26c-0.35,17.09,0.48,34.19,0.66,51.29c0.01,1.17-1.36,2.3-1.86,3.55
			c-2.38,5.93-4.65,11.91-7.02,17.85c-0.83,2.08-1.23,4.95-2.8,6.01c-7.1,4.77-19.08,5.28-28.23,1.54c2.06-2.58,3.76-5.3,6.02-7.42
			c11.81-11.11,16.27-25.71,17.45-40.91c1.35-17.41,1.59-34.95-6.94-51.46c-3.55-6.86-5.06-14.94-6.55-22.65
			c-1.11-5.75-4.99-3.88-8.54-4.7c-1.04,4.05-2.01,7.85-3.54,13.81c-3.67-7.46-3.77-17.15-14.55-12.96
			c-0.55,3.59-1.12,7.38-1.7,11.17c-0.68-0.01-1.37-0.02-2.05-0.03c-0.59-3.98-1.18-7.96-1.6-10.75
			c-5.96-2.92-11.12-5.46-16.77-8.22c-32.72,14.69-66.4,13.21-100.04-1.01c-4.73-2-9.66-3.63-14.11-6.11
			c-8.11-4.52-16.05-3.32-23.96-0.01c-1.69,0.71-3.5,2.52-4.09,4.22c-4.94,14.34-11.3,28.46-13.98,43.24
			c-4.36,23.99-15.15,46.84-12.88,72.1c0.84,9.35-0.72,19.01,7.44,26.7c-2.7,2.31-4.75,4.09-6.84,5.83
			c-4.16,3.46-5.78,7.62-4.4,13.09c2.14,8.42-2.72,15.22-11.88,15.8c-8.93,0.57-17.92,0.12-28.35,0.12
			c2.57-5.13,4.78-9.56,7.48-14.96c-6.98,0-14.13,0-21.27,0c-0.22-0.61-0.44-1.22-0.67-1.83c2.13-2.5,3.9-5.47,6.44-7.43
			c9.67-7.47,14.66-17.82,17.45-29.11c2.91-11.79,4.9-23.85,6.6-35.88c0.5-3.53-0.45-7.92-2.27-11.01
			c-4.88-8.28-6.08-17.14-6.56-26.44c-0.48-9.15-1.45-18.29-2.63-27.38c-0.25-1.94-1.92-4.44-3.63-5.33
			c-7.54-3.9-11.89-10.33-14.97-17.78c-8.65-20.89-16.52-42.13-25.92-62.67c-4.73-10.35-11.42-20.02-18.46-29.03
			C137.89,474.84,127.93,464.47,122.97,450.08z"/>
	</g>
	<g>
		<path class="st0" d="M172.55,49.23c9.64-17.34,24.76-21.64,41.95-11.96c8.87,5,11.97,3.8,14.63-5.69
			c3.9-13.92,11.84-18.42,25.93-14.68c12.14,3.21,21.92,9.52,28.39,20.67c3.96,6.83,9.94,10.08,18.24,10.16
			c16.42,0.16,24.43,7.31,20.76,23.53c-1.36,5.99,1.57,8.73,6.91,10.1c6.49,1.66,12.93,3.51,19.39,5.27c0,0-0.3-0.32-0.3-0.32
			c0.19,0.87,0.3,1.76,0.59,2.59c5.44,15.77,5.45,15.77,22.29,13.9c13.27-1.48,21.03,8.69,16.17,21.09
			c-2.62,6.68-0.07,11.69,5.85,14.79c8.21,4.3,10.38,10.07,7.15,18.93c-3.7,10.15-1.17,18.95,7.65,25.97
			c4.03,3.2,7.15,7.55,11.79,12.56c-10.51-1.47-19-3.33-27.56-3.68c-8.44-0.34-16.93,0.86-25.64,1.4c1.3-1.61,2.81-3.47,4.61-5.7
			c-7.97-9.29-15.96-18.92-5.19-32.74c-4.5,1.07-9,2.14-12.27,2.91c-4.52-5.06-8.49-9.51-12.46-13.95c-0.72,0.4-1.43,0.8-2.15,1.2
			c0.81-2.36,1.62-4.73,3.01-8.78c-4.14-1-8.14-2.72-12.14-2.73c-4.32-0.01-8.61,1.79-12.96,2.46c-10.43,1.6-18.68-4.33-20.59-14.59
			c-2.21-11.87-9.25-18.88-21.16-19.97c-5.79-0.53-11.8-0.31-17.54,0.61c-13.94,2.22-18.95-0.68-26.72-12.67
			c-2.38-3.67-8.95-5.58-13.91-6.36c-5.87-0.92-12.17,1.07-18.12,0.38c-13.54-1.56-22.02-9.93-26.92-22.29
			C172.31,57.51,172.43,53.37,172.55,49.23z"/>
		<path d="M524.31,317.97c-2.71-0.11-6.38-2.9-7.69-5.44c-2.37-4.61-4.42-9.91-4.69-15.01c-1.38-27.65-2.52-55.34-2.92-83.01
			c-0.13-8.39-2.82-13.27-10.91-14.04c-12.27-1.15-24.69-2.76-36.92-1.94c-12.85,0.88-13.86,3.87-14.71,17.05
			c-1.49,22.97-3.03,45.96-5.66,68.83c-1.09,9.54-5.03,18.77-7.66,28.14c-1.26-0.04-2.5-0.09-3.76-0.14
			c-2.03-9.22-5.35-18.39-5.83-27.69c-1.21-24.17-1.51-48.38-1.45-72.57c0.02-8.29-2.65-13.43-10.8-14.09
			c-12.83-1.04-25.84-2.48-38.58-1.46c-11.91,0.94-12.47,3.34-13.08,15.45c-0.93,18.89-1.98,37.79-3.46,56.64
			c-0.92,11.78-2.41,23.64-16.91,30.77l0.86-30.31c-1.24-0.82-2.48-1.63-3.71-2.45c-9.59,10.47-19.19,20.94-28.79,31.41
			c-0.89-0.52-1.76-1.04-2.66-1.55l0.81-28.23c-1.07-0.63-2.11-1.27-3.16-1.9c-9.73,10.36-19.45,20.74-29.18,31.11
			c-1-0.53-1.99-1.03-2.99-1.54l0.85-29.83c-4.04,2.32-6.34,3.64-8.38,4.8l1-35.01l-14.98-0.43c-0.41,14.5-1.17,28.5-1.07,42.5
			c0.04,7.16-1.84,12.38-8.43,15.37l1.65-57.67l-15.7-0.45l-2.09,73.41c-15.52,1.79-15.52,1.79-15.99,18.39l-2.95,103.57
			c-9.78,2.44-10.26,3.49-8.56,18.15l331.91,9.47l3.49-122.31l0.44,0.01c0.1-2.98,0.21-5.96,0.31-8.94
			C532.13,321.42,530.92,318.21,524.31,317.97z M254.32,401.15l-21.36-0.61l0.6-21.15l21.36,0.61L254.32,401.15z M255.41,365.38
			l-21.54-0.61l0.62-21.72l21.54,0.61L255.41,365.38z M270.81,344.03l20.83,0.59l-0.62,21.65l-20.83-0.59L270.81,344.03z
			 M290.35,401.88l-21.11-0.6l0.59-20.72l21.11,0.6L290.35,401.88z M306.72,345.38l21.61,0.62l-0.61,21.43l-21.61-0.62
			L306.72,345.38z M326.83,402.87l-21.61-0.62l0.59-20.67l21.61,0.62L326.83,402.87z M342.19,346.16l21.77,0.62l-0.62,21.74
			l-21.77-0.62L342.19,346.16z M362.55,403.94l-21.88-0.62l0.59-20.83l21.88,0.62L362.55,403.94z M378.39,347.1l21.13,0.6
			l-0.62,21.84l-21.13-0.6L378.39,347.1z M398.16,405.01l-21.31-0.61l0.6-20.88l21.31,0.61L398.16,405.01z"/>
		<path class="st0" d="M348.44,86.32c0,0,0.3,0.32,0.3,0.32c-5.75-2.67-11.28-6.52-17.32-7.68c-6-1.15-7.39-3.51-6.62-8.82
			c2.36-16.32-2.79-23.17-18.96-24.41c-9.67-0.74-16.84-3.76-22.49-12.71c-4.34-6.87-12.12-11.58-18.47-17.33
			c7.43-10.12,22.07-12.64,33.08-4.19c5.09,3.9,8.75,9.65,13.79,13.63c3.03,2.4,7.84,4.8,11.23,4.12
			c19.45-3.91,34.32,2.78,45.07,18.61c4.71,6.94,9.88,11.34,18.5,11.36c3.2,0.01,6.41,1,9.59,1.67c9.92,2.09,14.42,8.86,12.51,18.69
			c-1.99,10.21-0.74,12.31,8.99,13.96c10.1,1.71,18.58,4.24,20.04,17.02c0.67,5.9,6.67,7.43,12.7,5.32
			c8.08-2.82,15.56-2.36,21.94,4.32c3.87,4.05,5.83,8.24,2.34,13.34c-5.02,7.35-2.94,13,4.36,16.74c8.98,4.6,9.68,11.29,6.95,20
			c-3.26,10.37-1.08,13.8,8.87,18.68c4.11,2.02,7.63,5.22,12,8.3c-19.48-0.56-37.19-1.06-54.53-1.56c0.53-0.69,2-2.58,3.85-4.98
			c-8.08-4.72-9.31-11.12-6.69-20.19c4.1-14.2-0.51-20.13-15.15-21.9c-9.53-1.15-19.14-1.7-28.94-2.54
			c-3.17-2.84-7.02-6.58-11.18-9.93c-3.92-3.16-7.61-6.14-3.88-11.66c3.69-5.44,4.67-11.22-0.11-16.11
			c-5.37-5.49-11.5-10.41-20.16-8.65c-2.28,0.46-4.51,1.25-6.73,1.96c-5.26,1.68-8.22,0.26-9.61-5.54
			C352.86,92.69,350.25,89.6,348.44,86.32z"/>
	</g>
</g>
<g>
</g>
<g>
</g>
<g>
</g>
<g>
</g>
<g>
</g>
<g>
</g>
<g>
</g>
<g>
</g>
<g>
</g>
<g>
</g>
<g>
</g>
<g>
</g>
<g>
</g>
<g>
</g>
<g>
</g>
</svg>
